G04 #@! TF.GenerationSoftware,KiCad,Pcbnew,(5.0.0-rc2-dev-347-g62c5a706d)*
G04 #@! TF.CreationDate,2018-11-25T22:16:38+01:00*
G04 #@! TF.ProjectId,NRF24L01,4E524632344C30312E6B696361645F70,rev?*
G04 #@! TF.SameCoordinates,Original*
G04 #@! TF.FileFunction,Soldermask,Top*
G04 #@! TF.FilePolarity,Negative*
%FSLAX46Y46*%
G04 Gerber Fmt 4.6, Leading zero omitted, Abs format (unit mm)*
G04 Created by KiCad (PCBNEW (5.0.0-rc2-dev-347-g62c5a706d)) date 11/25/18 22:16:38*
%MOMM*%
%LPD*%
G01*
G04 APERTURE LIST*
%ADD10R,2.500000X1.100000*%
%ADD11R,1.100000X2.500000*%
%ADD12R,0.670000X1.000000*%
%ADD13C,3.000000*%
%ADD14C,2.500000*%
%ADD15R,0.650000X0.575000*%
%ADD16C,2.000000*%
%ADD17R,0.575000X0.650000*%
%ADD18R,1.070000X1.800000*%
%ADD19R,1.800000X1.070000*%
%ADD20R,1.000000X0.670000*%
%ADD21R,1.050000X2.200000*%
%ADD22R,1.000000X1.050000*%
%ADD23R,3.500000X3.500000*%
%ADD24O,0.800000X1.300000*%
%ADD25R,0.800000X1.300000*%
%ADD26C,5.500000*%
%ADD27R,0.800000X0.900000*%
%ADD28R,0.730000X0.300000*%
%ADD29R,0.300000X0.730000*%
%ADD30R,2.000000X1.500000*%
%ADD31R,2.000000X3.800000*%
%ADD32R,1.200000X1.400000*%
G04 APERTURE END LIST*
D10*
X76902327Y-130189087D03*
X76902327Y-128189087D03*
X76902327Y-126189087D03*
X76902327Y-124189087D03*
X76902327Y-122189087D03*
X76902327Y-120189087D03*
D11*
X92602327Y-132899087D03*
X90602327Y-132899087D03*
X88602327Y-132899087D03*
X86602327Y-132899087D03*
X84602327Y-132899087D03*
X82602327Y-132899087D03*
X80602327Y-132899087D03*
X78602327Y-132899087D03*
X78602327Y-117499087D03*
X80602327Y-117499087D03*
X82602327Y-117499087D03*
X84602327Y-117499087D03*
X86602327Y-117499087D03*
X88602327Y-117499087D03*
X90602327Y-117499087D03*
X92602327Y-117499087D03*
D12*
X77750627Y-135650787D03*
X79500627Y-135650787D03*
D13*
X55200000Y-130300000D03*
X55200000Y-125300000D03*
D14*
X66450000Y-106950000D03*
D13*
X54250000Y-106950000D03*
D14*
X66450000Y-118950000D03*
D13*
X68400000Y-113000000D03*
D15*
X87302327Y-103211587D03*
X87302327Y-103986587D03*
X81402327Y-110986587D03*
X81402327Y-110211587D03*
X81402327Y-108511587D03*
X81402327Y-109286587D03*
X80402327Y-108511587D03*
X80402327Y-109286587D03*
D16*
X94350000Y-92500000D03*
X91850000Y-92500000D03*
X89350000Y-92500000D03*
X86850000Y-92500000D03*
D12*
X73858731Y-135645928D03*
X75608731Y-135645928D03*
X73834631Y-133944128D03*
X75584631Y-133944128D03*
D15*
X87706127Y-110650987D03*
X87706127Y-109875987D03*
D17*
X89489827Y-105899087D03*
X88714827Y-105899087D03*
D15*
X86202327Y-103211587D03*
X86202327Y-103986587D03*
X84505727Y-103335787D03*
X84505727Y-102560787D03*
D17*
X83508927Y-102618087D03*
X82733927Y-102618087D03*
D18*
X98075627Y-109742787D03*
X101085627Y-109742787D03*
X93295000Y-98800000D03*
X96305000Y-98800000D03*
D19*
X93637027Y-111831887D03*
X93637027Y-114841887D03*
D20*
X86715527Y-115075487D03*
X86715527Y-113325487D03*
X73901227Y-117059287D03*
X73901227Y-118809287D03*
D13*
X106375127Y-134022287D03*
X106375127Y-129022287D03*
X106375127Y-118022287D03*
X106375127Y-113022287D03*
D21*
X83030727Y-99526887D03*
D22*
X84505727Y-101051887D03*
D21*
X85980727Y-99526887D03*
D23*
X127400000Y-91700000D03*
X122700000Y-94700000D03*
X122700000Y-88700000D03*
D24*
X88698627Y-136488987D03*
X89948627Y-136488987D03*
X91198627Y-136488987D03*
X92448627Y-136488987D03*
D25*
X93698627Y-136488987D03*
X99649527Y-113032087D03*
D24*
X98399527Y-113032087D03*
X97149527Y-113032087D03*
D25*
X100487727Y-136476287D03*
D24*
X99237727Y-136476287D03*
X97987727Y-136476287D03*
D17*
X84514827Y-106099087D03*
X85289827Y-106099087D03*
X86289827Y-104999087D03*
X85514827Y-104999087D03*
D15*
X84502327Y-104311587D03*
X84502327Y-105086587D03*
D26*
X67000000Y-133000000D03*
X53000000Y-100500000D03*
X128500000Y-127500000D03*
X114000000Y-95500000D03*
X114000000Y-133000000D03*
X67000000Y-95500000D03*
D27*
X72948727Y-126135187D03*
X71998727Y-124135187D03*
X73898727Y-124135187D03*
D15*
X87702327Y-108886587D03*
X87702327Y-108111587D03*
D17*
X82414827Y-106099087D03*
X83189827Y-106099087D03*
D20*
X89954027Y-115075487D03*
X89954027Y-113325487D03*
X88341127Y-113326787D03*
X88341127Y-115076787D03*
X91579627Y-115088187D03*
X91579627Y-113338187D03*
D12*
X82599427Y-135599987D03*
X80849427Y-135599987D03*
X85710927Y-135599987D03*
X83960927Y-135599987D03*
D20*
X73901227Y-122123987D03*
X73901227Y-120373987D03*
X73990127Y-129985287D03*
X73990127Y-128235287D03*
D28*
X82637327Y-110199087D03*
X82637327Y-109699087D03*
X82637327Y-109199087D03*
X82637327Y-108699087D03*
X82637327Y-108199087D03*
D29*
X83602327Y-107234087D03*
X84102327Y-107234087D03*
X84602327Y-107234087D03*
X85102327Y-107234087D03*
X85602327Y-107234087D03*
D28*
X86567327Y-108199087D03*
X86567327Y-108699087D03*
X86567327Y-109199087D03*
X86567327Y-109699087D03*
X86567327Y-110199087D03*
D29*
X85602327Y-111164087D03*
X85102327Y-111164087D03*
X84602327Y-111164087D03*
X84102327Y-111164087D03*
X83602327Y-111164087D03*
D30*
X93712827Y-101765887D03*
X93712827Y-106365887D03*
X93712827Y-104065887D03*
D31*
X100012827Y-104065887D03*
D32*
X89152327Y-109699087D03*
X89152327Y-107499087D03*
X90852327Y-107499087D03*
X90852327Y-109699087D03*
M02*
