G04 #@! TF.GenerationSoftware,KiCad,Pcbnew,(5.0.0-rc2-dev-347-g62c5a706d)*
G04 #@! TF.CreationDate,2018-11-25T22:16:37+01:00*
G04 #@! TF.ProjectId,NRF24L01,4E524632344C30312E6B696361645F70,rev?*
G04 #@! TF.SameCoordinates,Original*
G04 #@! TF.FileFunction,Copper,L2,Bot,Signal*
G04 #@! TF.FilePolarity,Positive*
%FSLAX46Y46*%
G04 Gerber Fmt 4.6, Leading zero omitted, Abs format (unit mm)*
G04 Created by KiCad (PCBNEW (5.0.0-rc2-dev-347-g62c5a706d)) date 11/25/18 22:16:37*
%MOMM*%
%LPD*%
G01*
G04 APERTURE LIST*
%ADD10C,3.000000*%
%ADD11C,2.500000*%
%ADD12C,2.000000*%
%ADD13R,3.500000X3.500000*%
%ADD14O,0.800000X1.300000*%
%ADD15R,0.800000X1.300000*%
%ADD16C,5.500000*%
%ADD17C,0.600000*%
%ADD18C,0.800000*%
%ADD19C,0.500000*%
%ADD20C,0.250000*%
%ADD21C,1.500000*%
%ADD22C,0.153000*%
%ADD23C,0.152000*%
%ADD24C,0.152400*%
G04 APERTURE END LIST*
D10*
X55200000Y-130300000D03*
X55200000Y-125300000D03*
D11*
X66450000Y-106950000D03*
D10*
X54250000Y-106950000D03*
D11*
X66450000Y-118950000D03*
D10*
X68400000Y-113000000D03*
D12*
X94350000Y-92500000D03*
X91850000Y-92500000D03*
X89350000Y-92500000D03*
X86850000Y-92500000D03*
D10*
X106375127Y-134022287D03*
X106375127Y-129022287D03*
X106375127Y-118022287D03*
X106375127Y-113022287D03*
D13*
X127400000Y-91700000D03*
X122700000Y-94700000D03*
X122700000Y-88700000D03*
D14*
X88698627Y-136488987D03*
X89948627Y-136488987D03*
X91198627Y-136488987D03*
X92448627Y-136488987D03*
D15*
X93698627Y-136488987D03*
X99649527Y-113032087D03*
D14*
X98399527Y-113032087D03*
X97149527Y-113032087D03*
D15*
X100487727Y-136476287D03*
D14*
X99237727Y-136476287D03*
X97987727Y-136476287D03*
D16*
X67000000Y-133000000D03*
X53000000Y-100500000D03*
X128500000Y-127500000D03*
X114000000Y-95500000D03*
X114000000Y-133000000D03*
X67000000Y-95500000D03*
D17*
X80402327Y-107100000D03*
X80400000Y-103400000D03*
X87073113Y-99526887D03*
X92212827Y-101765887D03*
X90900000Y-105900000D03*
X81402327Y-111697673D03*
D18*
X93295000Y-96900000D03*
D17*
X87200000Y-105000000D03*
X82733927Y-101400000D03*
X85500000Y-102500000D03*
X83189827Y-104900000D03*
D18*
X94600000Y-109742787D03*
D17*
X88300000Y-112528010D03*
X85600000Y-108200000D03*
X84077328Y-108200000D03*
X84077328Y-109777328D03*
X84000000Y-137900000D03*
X80900000Y-137000000D03*
X75800000Y-113800000D03*
X73900000Y-115800000D03*
X92341627Y-130304087D03*
X78800000Y-130300000D03*
X86600000Y-127600000D03*
X83200000Y-114544225D03*
X76400000Y-132100000D03*
X72200000Y-132100000D03*
D19*
X72600000Y-113800000D02*
X75800000Y-113800000D01*
X70400000Y-116000000D02*
X72600000Y-113800000D01*
X67300000Y-116000000D02*
X70400000Y-116000000D01*
X65000000Y-116000000D02*
X67300000Y-116000000D01*
X63300000Y-117700000D02*
X65000000Y-116000000D01*
X63300000Y-120800000D02*
X63300000Y-117700000D01*
X66000000Y-123500000D02*
X63300000Y-120800000D01*
X68483998Y-123500000D02*
X66000000Y-123500000D01*
X71300000Y-135100000D02*
X71300000Y-126316002D01*
X71300000Y-126316002D02*
X68483998Y-123500000D01*
X73200000Y-137000000D02*
X71300000Y-135100000D01*
X80900000Y-137000000D02*
X73200000Y-137000000D01*
X82534315Y-137000000D02*
X80900000Y-137000000D01*
X84000000Y-137900000D02*
X83434315Y-137900000D01*
X83434315Y-137900000D02*
X82534315Y-137000000D01*
X95664014Y-137900000D02*
X84000000Y-137900000D01*
X97987727Y-136476287D02*
X97087727Y-136476287D01*
X97087727Y-136476287D02*
X95664014Y-137900000D01*
X66450000Y-118950000D02*
X70750000Y-118950000D01*
X70750000Y-118950000D02*
X73900000Y-115800000D01*
D20*
X95040364Y-116200000D02*
X94574990Y-116665374D01*
X106375127Y-116200000D02*
X95040364Y-116200000D01*
X94574990Y-116665374D02*
X94574990Y-128125010D01*
X94574990Y-128125010D02*
X93500000Y-129200000D01*
X93500000Y-129200000D02*
X76700000Y-129200000D01*
X76700000Y-129200000D02*
X66450000Y-118950000D01*
D21*
X106375127Y-113022287D02*
X106375127Y-116200000D01*
X106375127Y-116200000D02*
X106375127Y-118022287D01*
X118900000Y-103567914D02*
X118900000Y-89250000D01*
X118900000Y-89250000D02*
X119450000Y-88700000D01*
X119450000Y-88700000D02*
X122700000Y-88700000D01*
X110439127Y-112028787D02*
X118900000Y-103567914D01*
X110439127Y-112028787D02*
X110439127Y-124958287D01*
X106375127Y-129022287D02*
X106375127Y-134022287D01*
X110439127Y-124958287D02*
X106375127Y-129022287D01*
D22*
X92341627Y-130304087D02*
X78804087Y-130304087D01*
D23*
X78804087Y-130304087D02*
X78800000Y-130300000D01*
D22*
X86600000Y-118500000D02*
X86600000Y-127600000D01*
X83200000Y-114544225D02*
X83200000Y-114968489D01*
X83200000Y-114968489D02*
X86600000Y-118368489D01*
X86600000Y-118368489D02*
X86600000Y-118500000D01*
D21*
X54250000Y-106950000D02*
X54250000Y-124350000D01*
X54250000Y-124350000D02*
X55200000Y-125300000D01*
X60800000Y-114200000D02*
X62000000Y-113000000D01*
X60800000Y-114200000D02*
X60700000Y-114200000D01*
X60700000Y-114200000D02*
X59100000Y-115800000D01*
X57321320Y-130300000D02*
X59100000Y-128521320D01*
X55200000Y-130300000D02*
X57321320Y-130300000D01*
X59100000Y-128521320D02*
X59100000Y-115800000D01*
X62000000Y-113000000D02*
X68400000Y-113000000D01*
D22*
X76400000Y-132100000D02*
X72200000Y-132100000D01*
D24*
G36*
X128123800Y-89365800D02*
X127723850Y-89365800D01*
X127577800Y-89511850D01*
X127577800Y-91522200D01*
X127597800Y-91522200D01*
X127597800Y-91877800D01*
X127577800Y-91877800D01*
X127577800Y-93888150D01*
X127723850Y-94034200D01*
X128123800Y-94034200D01*
X128123800Y-96000000D01*
X128129600Y-96029160D01*
X128146118Y-96053882D01*
X128170840Y-96070400D01*
X128200000Y-96076200D01*
X137523800Y-96076200D01*
X137523800Y-133023800D01*
X128000000Y-133023800D01*
X127970840Y-133029600D01*
X127946118Y-133046118D01*
X127929600Y-133070840D01*
X127923800Y-133100000D01*
X127923800Y-142923800D01*
X58176200Y-142923800D01*
X58176200Y-135422837D01*
X64828610Y-135422837D01*
X65148390Y-135851014D01*
X66380372Y-136342574D01*
X67706685Y-136325257D01*
X68851610Y-135851014D01*
X69171390Y-135422837D01*
X67000000Y-133251447D01*
X64828610Y-135422837D01*
X58176200Y-135422837D01*
X58176200Y-134200000D01*
X58170400Y-134170840D01*
X58153882Y-134146118D01*
X58129160Y-134129600D01*
X58100000Y-134123800D01*
X49176200Y-134123800D01*
X49176200Y-132380372D01*
X63657426Y-132380372D01*
X63674743Y-133706685D01*
X64148986Y-134851610D01*
X64577163Y-135171390D01*
X66748553Y-133000000D01*
X67251447Y-133000000D01*
X69422837Y-135171390D01*
X69851014Y-134851610D01*
X70342574Y-133619628D01*
X70325257Y-132293315D01*
X69851014Y-131148390D01*
X69422837Y-130828610D01*
X67251447Y-133000000D01*
X66748553Y-133000000D01*
X64577163Y-130828610D01*
X64148986Y-131148390D01*
X63657426Y-132380372D01*
X49176200Y-132380372D01*
X49176200Y-129956041D01*
X53470800Y-129956041D01*
X53470800Y-130643959D01*
X53734055Y-131279513D01*
X54220487Y-131765945D01*
X54856041Y-132029200D01*
X55543959Y-132029200D01*
X56179513Y-131765945D01*
X56665945Y-131279513D01*
X56666075Y-131279200D01*
X57224884Y-131279200D01*
X57321320Y-131298382D01*
X57417756Y-131279200D01*
X57417760Y-131279200D01*
X57703385Y-131222386D01*
X58027283Y-131005963D01*
X58081913Y-130924204D01*
X58428954Y-130577163D01*
X64828610Y-130577163D01*
X67000000Y-132748553D01*
X69171390Y-130577163D01*
X68851610Y-130148986D01*
X67619628Y-129657426D01*
X66293315Y-129674743D01*
X65148390Y-130148986D01*
X64828610Y-130577163D01*
X58428954Y-130577163D01*
X59724207Y-129281910D01*
X59805963Y-129227283D01*
X60022386Y-128903385D01*
X60079200Y-128617760D01*
X60079200Y-128617756D01*
X60098382Y-128521321D01*
X60079200Y-128424886D01*
X60079200Y-117700000D01*
X62811412Y-117700000D01*
X62820801Y-117747201D01*
X62820800Y-120752804D01*
X62811412Y-120800000D01*
X62820800Y-120847195D01*
X62848604Y-120986974D01*
X62954516Y-121145484D01*
X62994531Y-121172221D01*
X65627781Y-123805472D01*
X65654516Y-123845484D01*
X65813025Y-123951396D01*
X65952804Y-123979200D01*
X66000000Y-123988588D01*
X66047196Y-123979200D01*
X68285508Y-123979200D01*
X70820801Y-126514495D01*
X70820800Y-135052804D01*
X70811412Y-135100000D01*
X70820800Y-135147195D01*
X70848604Y-135286974D01*
X70954516Y-135445484D01*
X70994531Y-135472221D01*
X72827781Y-137305472D01*
X72854516Y-137345484D01*
X73013025Y-137451396D01*
X73152804Y-137479200D01*
X73200000Y-137488588D01*
X73247196Y-137479200D01*
X80674025Y-137479200D01*
X80794736Y-137529200D01*
X81005264Y-137529200D01*
X81125975Y-137479200D01*
X82335825Y-137479200D01*
X83062097Y-138205474D01*
X83088831Y-138245484D01*
X83128840Y-138272217D01*
X83128841Y-138272218D01*
X83247340Y-138351396D01*
X83434314Y-138388588D01*
X83481510Y-138379200D01*
X83774025Y-138379200D01*
X83894736Y-138429200D01*
X84105264Y-138429200D01*
X84225975Y-138379200D01*
X95616818Y-138379200D01*
X95664014Y-138388588D01*
X95711210Y-138379200D01*
X95850989Y-138351396D01*
X96009498Y-138245484D01*
X96036235Y-138205469D01*
X97286219Y-136955487D01*
X97391792Y-136955487D01*
X97395034Y-136971787D01*
X97534100Y-137179914D01*
X97742226Y-137318980D01*
X97987727Y-137367813D01*
X98233227Y-137318980D01*
X98441354Y-137179914D01*
X98580420Y-136971788D01*
X98612727Y-136809368D01*
X98645034Y-136971787D01*
X98784100Y-137179914D01*
X98992226Y-137318980D01*
X99237727Y-137367813D01*
X99483227Y-137318980D01*
X99523941Y-137291776D01*
X99592466Y-137457209D01*
X99756804Y-137621548D01*
X99971522Y-137710487D01*
X100163877Y-137710487D01*
X100309927Y-137564437D01*
X100309927Y-136654087D01*
X100665527Y-136654087D01*
X100665527Y-137564437D01*
X100811577Y-137710487D01*
X101003932Y-137710487D01*
X101218650Y-137621548D01*
X101382988Y-137457209D01*
X101471927Y-137242491D01*
X101471927Y-136800137D01*
X101325877Y-136654087D01*
X100665527Y-136654087D01*
X100309927Y-136654087D01*
X100289927Y-136654087D01*
X100289927Y-136298487D01*
X100309927Y-136298487D01*
X100309927Y-135388137D01*
X100665527Y-135388137D01*
X100665527Y-136298487D01*
X101325877Y-136298487D01*
X101471927Y-136152437D01*
X101471927Y-135710083D01*
X101382988Y-135495365D01*
X101218650Y-135331026D01*
X101003932Y-135242087D01*
X100811577Y-135242087D01*
X100665527Y-135388137D01*
X100309927Y-135388137D01*
X100163877Y-135242087D01*
X99971522Y-135242087D01*
X99756804Y-135331026D01*
X99592466Y-135495365D01*
X99523941Y-135660798D01*
X99483228Y-135633594D01*
X99237727Y-135584761D01*
X98992227Y-135633594D01*
X98784101Y-135772660D01*
X98645034Y-135980786D01*
X98612727Y-136143205D01*
X98580420Y-135980786D01*
X98441354Y-135772660D01*
X98233228Y-135633594D01*
X97987727Y-135584761D01*
X97742227Y-135633594D01*
X97534101Y-135772660D01*
X97395034Y-135980786D01*
X97391792Y-135997087D01*
X97134918Y-135997087D01*
X97087726Y-135987700D01*
X97040534Y-135997087D01*
X97040531Y-135997087D01*
X96900752Y-136024891D01*
X96742243Y-136130803D01*
X96715510Y-136170813D01*
X95465524Y-137420800D01*
X89400969Y-137420800D01*
X89552407Y-137230972D01*
X89703126Y-137331680D01*
X89948627Y-137380513D01*
X90194127Y-137331680D01*
X90402254Y-137192614D01*
X90541320Y-136984488D01*
X90573627Y-136822068D01*
X90605934Y-136984487D01*
X90745000Y-137192614D01*
X90953126Y-137331680D01*
X91198627Y-137380513D01*
X91444127Y-137331680D01*
X91652254Y-137192614D01*
X91791320Y-136984488D01*
X91823627Y-136822068D01*
X91855934Y-136984487D01*
X91995000Y-137192614D01*
X92203126Y-137331680D01*
X92448627Y-137380513D01*
X92694127Y-137331680D01*
X92902254Y-137192614D01*
X93041320Y-136984488D01*
X93064937Y-136865757D01*
X93064937Y-137138987D01*
X93082726Y-137228416D01*
X93133383Y-137304231D01*
X93209198Y-137354888D01*
X93298627Y-137372677D01*
X94098627Y-137372677D01*
X94188056Y-137354888D01*
X94263871Y-137304231D01*
X94314528Y-137228416D01*
X94332317Y-137138987D01*
X94332317Y-135838987D01*
X94314528Y-135749558D01*
X94263871Y-135673743D01*
X94188056Y-135623086D01*
X94098627Y-135605297D01*
X93298627Y-135605297D01*
X93209198Y-135623086D01*
X93133383Y-135673743D01*
X93082726Y-135749558D01*
X93064937Y-135838987D01*
X93064937Y-136112217D01*
X93041320Y-135993486D01*
X92902254Y-135785360D01*
X92694128Y-135646294D01*
X92448627Y-135597461D01*
X92203127Y-135646294D01*
X91995001Y-135785360D01*
X91855934Y-135993486D01*
X91823627Y-136155905D01*
X91791320Y-135993486D01*
X91652254Y-135785360D01*
X91444128Y-135646294D01*
X91198627Y-135597461D01*
X90953127Y-135646294D01*
X90745001Y-135785360D01*
X90605934Y-135993486D01*
X90573627Y-136155905D01*
X90541320Y-135993486D01*
X90402254Y-135785360D01*
X90194128Y-135646294D01*
X89948627Y-135597461D01*
X89703127Y-135646294D01*
X89552407Y-135747002D01*
X89339353Y-135479939D01*
X89025668Y-135310712D01*
X88876427Y-135419913D01*
X88876427Y-136311187D01*
X88896427Y-136311187D01*
X88896427Y-136666787D01*
X88876427Y-136666787D01*
X88876427Y-136686787D01*
X88520827Y-136686787D01*
X88520827Y-136666787D01*
X87853985Y-136666787D01*
X87708837Y-136822654D01*
X87816198Y-137195061D01*
X87996285Y-137420800D01*
X84225975Y-137420800D01*
X84105264Y-137370800D01*
X83894736Y-137370800D01*
X83774025Y-137420800D01*
X83632807Y-137420800D01*
X82906536Y-136694531D01*
X82879799Y-136654516D01*
X82721290Y-136548604D01*
X82581511Y-136520800D01*
X82534315Y-136511412D01*
X82487119Y-136520800D01*
X81125975Y-136520800D01*
X81005264Y-136470800D01*
X80794736Y-136470800D01*
X80674025Y-136520800D01*
X73398491Y-136520800D01*
X73033011Y-136155320D01*
X87708837Y-136155320D01*
X87853985Y-136311187D01*
X88520827Y-136311187D01*
X88520827Y-135419913D01*
X88371586Y-135310712D01*
X88057901Y-135479939D01*
X87816198Y-135782913D01*
X87708837Y-136155320D01*
X73033011Y-136155320D01*
X71779200Y-134901510D01*
X71779200Y-132427602D01*
X71900232Y-132548634D01*
X72094736Y-132629200D01*
X72305264Y-132629200D01*
X72499768Y-132548634D01*
X72642702Y-132405700D01*
X75957298Y-132405700D01*
X76100232Y-132548634D01*
X76294736Y-132629200D01*
X76505264Y-132629200D01*
X76699768Y-132548634D01*
X76848634Y-132399768D01*
X76929200Y-132205264D01*
X76929200Y-131994736D01*
X76848634Y-131800232D01*
X76699768Y-131651366D01*
X76505264Y-131570800D01*
X76294736Y-131570800D01*
X76100232Y-131651366D01*
X75957298Y-131794300D01*
X72642702Y-131794300D01*
X72499768Y-131651366D01*
X72305264Y-131570800D01*
X72094736Y-131570800D01*
X71900232Y-131651366D01*
X71779200Y-131772398D01*
X71779200Y-130194736D01*
X78270800Y-130194736D01*
X78270800Y-130405264D01*
X78351366Y-130599768D01*
X78500232Y-130748634D01*
X78694736Y-130829200D01*
X78905264Y-130829200D01*
X79099768Y-130748634D01*
X79238615Y-130609787D01*
X91898925Y-130609787D01*
X92041859Y-130752721D01*
X92236363Y-130833287D01*
X92446891Y-130833287D01*
X92641395Y-130752721D01*
X92790261Y-130603855D01*
X92870827Y-130409351D01*
X92870827Y-130198823D01*
X92790261Y-130004319D01*
X92641395Y-129855453D01*
X92446891Y-129774887D01*
X92236363Y-129774887D01*
X92041859Y-129855453D01*
X91898925Y-129998387D01*
X79246789Y-129998387D01*
X79099768Y-129851366D01*
X78905264Y-129770800D01*
X78694736Y-129770800D01*
X78500232Y-129851366D01*
X78351366Y-130000232D01*
X78270800Y-130194736D01*
X71779200Y-130194736D01*
X71779200Y-126363197D01*
X71788588Y-126316001D01*
X71751396Y-126129027D01*
X71672218Y-126010528D01*
X71672217Y-126010527D01*
X71645484Y-125970518D01*
X71605475Y-125943785D01*
X68856219Y-123194531D01*
X68829482Y-123154516D01*
X68670973Y-123048604D01*
X68531194Y-123020800D01*
X68483998Y-123011412D01*
X68436802Y-123020800D01*
X66198491Y-123020800D01*
X63779200Y-120601510D01*
X63779200Y-118655769D01*
X64970800Y-118655769D01*
X64970800Y-119244231D01*
X65195995Y-119787899D01*
X65612101Y-120204005D01*
X66155769Y-120429200D01*
X66744231Y-120429200D01*
X67227931Y-120228844D01*
X76424874Y-129425788D01*
X76444636Y-129455364D01*
X76561798Y-129533649D01*
X76699999Y-129561139D01*
X76734884Y-129554200D01*
X93465115Y-129554200D01*
X93500000Y-129561139D01*
X93534885Y-129554200D01*
X93638202Y-129533649D01*
X93755364Y-129455364D01*
X93775128Y-129425785D01*
X94800781Y-128400134D01*
X94823800Y-128384753D01*
X94823800Y-133500000D01*
X94829600Y-133529160D01*
X94846118Y-133553882D01*
X94870840Y-133570400D01*
X94900000Y-133576200D01*
X101500000Y-133576200D01*
X101529160Y-133570400D01*
X101553882Y-133553882D01*
X101570400Y-133529160D01*
X101576200Y-133500000D01*
X101576200Y-128678328D01*
X104645927Y-128678328D01*
X104645927Y-129366246D01*
X104909182Y-130001800D01*
X105395614Y-130488232D01*
X105395927Y-130488362D01*
X105395928Y-132556212D01*
X105395614Y-132556342D01*
X104909182Y-133042774D01*
X104645927Y-133678328D01*
X104645927Y-134366246D01*
X104909182Y-135001800D01*
X105395614Y-135488232D01*
X106031168Y-135751487D01*
X106719086Y-135751487D01*
X107354640Y-135488232D01*
X107420035Y-135422837D01*
X111828610Y-135422837D01*
X112148390Y-135851014D01*
X113380372Y-136342574D01*
X114706685Y-136325257D01*
X115851610Y-135851014D01*
X116171390Y-135422837D01*
X114000000Y-133251447D01*
X111828610Y-135422837D01*
X107420035Y-135422837D01*
X107841072Y-135001800D01*
X108104327Y-134366246D01*
X108104327Y-133678328D01*
X107841072Y-133042774D01*
X107354640Y-132556342D01*
X107354327Y-132556212D01*
X107354327Y-132380372D01*
X110657426Y-132380372D01*
X110674743Y-133706685D01*
X111148986Y-134851610D01*
X111577163Y-135171390D01*
X113748553Y-133000000D01*
X114251447Y-133000000D01*
X116422837Y-135171390D01*
X116851014Y-134851610D01*
X117342574Y-133619628D01*
X117325257Y-132293315D01*
X116851014Y-131148390D01*
X116422837Y-130828610D01*
X114251447Y-133000000D01*
X113748553Y-133000000D01*
X111577163Y-130828610D01*
X111148986Y-131148390D01*
X110657426Y-132380372D01*
X107354327Y-132380372D01*
X107354327Y-130577163D01*
X111828610Y-130577163D01*
X114000000Y-132748553D01*
X116171390Y-130577163D01*
X115851610Y-130148986D01*
X115284820Y-129922837D01*
X126328610Y-129922837D01*
X126648390Y-130351014D01*
X127880372Y-130842574D01*
X129206685Y-130825257D01*
X130351610Y-130351014D01*
X130671390Y-129922837D01*
X128500000Y-127751447D01*
X126328610Y-129922837D01*
X115284820Y-129922837D01*
X114619628Y-129657426D01*
X113293315Y-129674743D01*
X112148390Y-130148986D01*
X111828610Y-130577163D01*
X107354327Y-130577163D01*
X107354327Y-130488362D01*
X107354640Y-130488232D01*
X107841072Y-130001800D01*
X108104327Y-129366246D01*
X108104327Y-128678328D01*
X108104197Y-128678014D01*
X109901839Y-126880372D01*
X125157426Y-126880372D01*
X125174743Y-128206685D01*
X125648986Y-129351610D01*
X126077163Y-129671390D01*
X128248553Y-127500000D01*
X128751447Y-127500000D01*
X130922837Y-129671390D01*
X131351014Y-129351610D01*
X131842574Y-128119628D01*
X131825257Y-126793315D01*
X131351014Y-125648390D01*
X130922837Y-125328610D01*
X128751447Y-127500000D01*
X128248553Y-127500000D01*
X126077163Y-125328610D01*
X125648986Y-125648390D01*
X125157426Y-126880372D01*
X109901839Y-126880372D01*
X111063334Y-125718878D01*
X111145090Y-125664250D01*
X111361513Y-125340352D01*
X111413864Y-125077163D01*
X126328610Y-125077163D01*
X128500000Y-127248553D01*
X130671390Y-125077163D01*
X130351610Y-124648986D01*
X129119628Y-124157426D01*
X127793315Y-124174743D01*
X126648390Y-124648986D01*
X126328610Y-125077163D01*
X111413864Y-125077163D01*
X111418327Y-125054727D01*
X111418327Y-125054723D01*
X111437509Y-124958287D01*
X111418327Y-124861851D01*
X111418327Y-112434384D01*
X119524208Y-104328504D01*
X119605963Y-104273877D01*
X119822386Y-103949979D01*
X119879200Y-103664354D01*
X119879200Y-103664350D01*
X119898382Y-103567915D01*
X119879200Y-103471480D01*
X119879200Y-95023850D01*
X120365800Y-95023850D01*
X120365800Y-96566205D01*
X120454739Y-96780923D01*
X120619078Y-96945261D01*
X120833796Y-97034200D01*
X122376150Y-97034200D01*
X122522200Y-96888150D01*
X122522200Y-94877800D01*
X122877800Y-94877800D01*
X122877800Y-96888150D01*
X123023850Y-97034200D01*
X124566204Y-97034200D01*
X124780922Y-96945261D01*
X124945261Y-96780923D01*
X125034200Y-96566205D01*
X125034200Y-95023850D01*
X124888150Y-94877800D01*
X122877800Y-94877800D01*
X122522200Y-94877800D01*
X120511850Y-94877800D01*
X120365800Y-95023850D01*
X119879200Y-95023850D01*
X119879200Y-92833795D01*
X120365800Y-92833795D01*
X120365800Y-94376150D01*
X120511850Y-94522200D01*
X122522200Y-94522200D01*
X122522200Y-92511850D01*
X122877800Y-92511850D01*
X122877800Y-94522200D01*
X124888150Y-94522200D01*
X125034200Y-94376150D01*
X125034200Y-92833795D01*
X124945261Y-92619077D01*
X124780922Y-92454739D01*
X124566204Y-92365800D01*
X123023850Y-92365800D01*
X122877800Y-92511850D01*
X122522200Y-92511850D01*
X122376150Y-92365800D01*
X120833796Y-92365800D01*
X120619078Y-92454739D01*
X120454739Y-92619077D01*
X120365800Y-92833795D01*
X119879200Y-92833795D01*
X119879200Y-92023850D01*
X125065800Y-92023850D01*
X125065800Y-93566205D01*
X125154739Y-93780923D01*
X125319078Y-93945261D01*
X125533796Y-94034200D01*
X127076150Y-94034200D01*
X127222200Y-93888150D01*
X127222200Y-91877800D01*
X125211850Y-91877800D01*
X125065800Y-92023850D01*
X119879200Y-92023850D01*
X119879200Y-89679200D01*
X120716310Y-89679200D01*
X120716310Y-90450000D01*
X120734099Y-90539429D01*
X120784756Y-90615244D01*
X120860571Y-90665901D01*
X120950000Y-90683690D01*
X124450000Y-90683690D01*
X124539429Y-90665901D01*
X124615244Y-90615244D01*
X124665901Y-90539429D01*
X124683690Y-90450000D01*
X124683690Y-89833795D01*
X125065800Y-89833795D01*
X125065800Y-91376150D01*
X125211850Y-91522200D01*
X127222200Y-91522200D01*
X127222200Y-89511850D01*
X127076150Y-89365800D01*
X125533796Y-89365800D01*
X125319078Y-89454739D01*
X125154739Y-89619077D01*
X125065800Y-89833795D01*
X124683690Y-89833795D01*
X124683690Y-86950000D01*
X124665901Y-86860571D01*
X124615244Y-86784756D01*
X124539429Y-86734099D01*
X124450000Y-86716310D01*
X120950000Y-86716310D01*
X120860571Y-86734099D01*
X120784756Y-86784756D01*
X120734099Y-86860571D01*
X120716310Y-86950000D01*
X120716310Y-87720800D01*
X119546434Y-87720800D01*
X119449999Y-87701618D01*
X119353564Y-87720800D01*
X119353560Y-87720800D01*
X119067935Y-87777614D01*
X118744037Y-87994037D01*
X118689407Y-88075796D01*
X118275794Y-88489409D01*
X118194038Y-88544037D01*
X118139410Y-88625793D01*
X118139408Y-88625795D01*
X117977614Y-88867936D01*
X117901618Y-89250000D01*
X117920801Y-89346441D01*
X117920800Y-103162316D01*
X109814923Y-111268194D01*
X109733164Y-111322824D01*
X109516741Y-111646723D01*
X109459927Y-111932348D01*
X109459927Y-111932351D01*
X109440745Y-112028787D01*
X109459927Y-112125223D01*
X109459928Y-124552688D01*
X106719400Y-127293217D01*
X106719086Y-127293087D01*
X106031168Y-127293087D01*
X105395614Y-127556342D01*
X104909182Y-128042774D01*
X104645927Y-128678328D01*
X101576200Y-128678328D01*
X101576200Y-116800000D01*
X101570400Y-116770840D01*
X101553882Y-116746118D01*
X101529160Y-116729600D01*
X101500000Y-116723800D01*
X95017477Y-116723800D01*
X95187078Y-116554200D01*
X105395927Y-116554200D01*
X105395927Y-116556212D01*
X105395614Y-116556342D01*
X104909182Y-117042774D01*
X104645927Y-117678328D01*
X104645927Y-118366246D01*
X104909182Y-119001800D01*
X105395614Y-119488232D01*
X106031168Y-119751487D01*
X106719086Y-119751487D01*
X107354640Y-119488232D01*
X107841072Y-119001800D01*
X108104327Y-118366246D01*
X108104327Y-117678328D01*
X107841072Y-117042774D01*
X107354640Y-116556342D01*
X107354327Y-116556212D01*
X107354327Y-114488362D01*
X107354640Y-114488232D01*
X107841072Y-114001800D01*
X108104327Y-113366246D01*
X108104327Y-112678328D01*
X107841072Y-112042774D01*
X107354640Y-111556342D01*
X106719086Y-111293087D01*
X106031168Y-111293087D01*
X105395614Y-111556342D01*
X104909182Y-112042774D01*
X104645927Y-112678328D01*
X104645927Y-113366246D01*
X104909182Y-114001800D01*
X105395614Y-114488232D01*
X105395927Y-114488362D01*
X105395928Y-115845800D01*
X95075247Y-115845800D01*
X95040363Y-115838861D01*
X95005479Y-115845800D01*
X94902162Y-115866351D01*
X94785000Y-115944636D01*
X94765238Y-115974212D01*
X94349203Y-116390248D01*
X94319626Y-116410011D01*
X94267123Y-116488588D01*
X94241341Y-116527173D01*
X94213851Y-116665374D01*
X94220790Y-116700259D01*
X94220791Y-127978294D01*
X93353287Y-128845800D01*
X76846714Y-128845800D01*
X67728844Y-119727931D01*
X67852583Y-119429200D01*
X70702804Y-119429200D01*
X70750000Y-119438588D01*
X70797196Y-119429200D01*
X70936975Y-119401396D01*
X71095484Y-119295484D01*
X71122221Y-119255469D01*
X74079057Y-116298634D01*
X74199768Y-116248634D01*
X74348634Y-116099768D01*
X74429200Y-115905264D01*
X74429200Y-115694736D01*
X74348634Y-115500232D01*
X74199768Y-115351366D01*
X74005264Y-115270800D01*
X73794736Y-115270800D01*
X73600232Y-115351366D01*
X73451366Y-115500232D01*
X73401366Y-115620943D01*
X70551510Y-118470800D01*
X67852583Y-118470800D01*
X67704005Y-118112101D01*
X67287899Y-117695995D01*
X66744231Y-117470800D01*
X66155769Y-117470800D01*
X65612101Y-117695995D01*
X65195995Y-118112101D01*
X64970800Y-118655769D01*
X63779200Y-118655769D01*
X63779200Y-117898490D01*
X65198491Y-116479200D01*
X70352804Y-116479200D01*
X70400000Y-116488588D01*
X70447196Y-116479200D01*
X70586975Y-116451396D01*
X70745484Y-116345484D01*
X70772221Y-116305469D01*
X72638729Y-114438961D01*
X82670800Y-114438961D01*
X82670800Y-114649489D01*
X82751366Y-114843993D01*
X82891403Y-114984030D01*
X82894300Y-114998593D01*
X82894300Y-114998598D01*
X82909185Y-115073425D01*
X82912038Y-115087767D01*
X82962548Y-115163361D01*
X82962550Y-115163363D01*
X82979604Y-115188886D01*
X83005127Y-115205940D01*
X86294300Y-118495114D01*
X86294301Y-127157297D01*
X86151366Y-127300232D01*
X86070800Y-127494736D01*
X86070800Y-127705264D01*
X86151366Y-127899768D01*
X86300232Y-128048634D01*
X86494736Y-128129200D01*
X86705264Y-128129200D01*
X86899768Y-128048634D01*
X87048634Y-127899768D01*
X87129200Y-127705264D01*
X87129200Y-127494736D01*
X87048634Y-127300232D01*
X86905700Y-127157298D01*
X86905700Y-118398592D01*
X86911688Y-118368488D01*
X86905700Y-118338384D01*
X86905700Y-118338380D01*
X86887963Y-118249211D01*
X86820397Y-118148092D01*
X86794874Y-118131038D01*
X83578231Y-114914396D01*
X83648634Y-114843993D01*
X83729200Y-114649489D01*
X83729200Y-114438961D01*
X83648634Y-114244457D01*
X83499768Y-114095591D01*
X83305264Y-114015025D01*
X83094736Y-114015025D01*
X82900232Y-114095591D01*
X82751366Y-114244457D01*
X82670800Y-114438961D01*
X72638729Y-114438961D01*
X72798491Y-114279200D01*
X75574025Y-114279200D01*
X75694736Y-114329200D01*
X75905264Y-114329200D01*
X76099768Y-114248634D01*
X76248634Y-114099768D01*
X76329200Y-113905264D01*
X76329200Y-113694736D01*
X76248634Y-113500232D01*
X76114156Y-113365754D01*
X96159737Y-113365754D01*
X96267098Y-113738161D01*
X96508801Y-114041135D01*
X96822486Y-114210362D01*
X96971727Y-114101161D01*
X96971727Y-113209887D01*
X96304885Y-113209887D01*
X96159737Y-113365754D01*
X76114156Y-113365754D01*
X76099768Y-113351366D01*
X75905264Y-113270800D01*
X75694736Y-113270800D01*
X75574025Y-113320800D01*
X72647196Y-113320800D01*
X72600000Y-113311412D01*
X72552804Y-113320800D01*
X72413025Y-113348604D01*
X72254516Y-113454516D01*
X72227781Y-113494528D01*
X70201510Y-115520800D01*
X65047195Y-115520800D01*
X64999999Y-115511412D01*
X64895183Y-115532262D01*
X64813025Y-115548604D01*
X64654516Y-115654516D01*
X64627781Y-115694528D01*
X62994529Y-117327781D01*
X62954517Y-117354516D01*
X62927782Y-117394528D01*
X62848604Y-117513027D01*
X62811412Y-117700000D01*
X60079200Y-117700000D01*
X60079200Y-116205597D01*
X61157532Y-115127266D01*
X61182065Y-115122386D01*
X61505963Y-114905963D01*
X61560593Y-114824204D01*
X62405598Y-113979200D01*
X66933925Y-113979200D01*
X66934055Y-113979513D01*
X67420487Y-114465945D01*
X68056041Y-114729200D01*
X68743959Y-114729200D01*
X69379513Y-114465945D01*
X69865945Y-113979513D01*
X70129200Y-113343959D01*
X70129200Y-112698420D01*
X96159737Y-112698420D01*
X96304885Y-112854287D01*
X96971727Y-112854287D01*
X96971727Y-111963013D01*
X97327327Y-111963013D01*
X97327327Y-112854287D01*
X97347327Y-112854287D01*
X97347327Y-113209887D01*
X97327327Y-113209887D01*
X97327327Y-114101161D01*
X97476568Y-114210362D01*
X97790253Y-114041135D01*
X98003307Y-113774072D01*
X98154026Y-113874780D01*
X98399527Y-113923613D01*
X98645027Y-113874780D01*
X98853154Y-113735714D01*
X98992220Y-113527588D01*
X99015837Y-113408857D01*
X99015837Y-113682087D01*
X99033626Y-113771516D01*
X99084283Y-113847331D01*
X99160098Y-113897988D01*
X99249527Y-113915777D01*
X100049527Y-113915777D01*
X100138956Y-113897988D01*
X100214771Y-113847331D01*
X100265428Y-113771516D01*
X100283217Y-113682087D01*
X100283217Y-112382087D01*
X100265428Y-112292658D01*
X100214771Y-112216843D01*
X100138956Y-112166186D01*
X100049527Y-112148397D01*
X99249527Y-112148397D01*
X99160098Y-112166186D01*
X99084283Y-112216843D01*
X99033626Y-112292658D01*
X99015837Y-112382087D01*
X99015837Y-112655317D01*
X98992220Y-112536586D01*
X98853154Y-112328460D01*
X98645028Y-112189394D01*
X98399527Y-112140561D01*
X98154027Y-112189394D01*
X98003307Y-112290102D01*
X97790253Y-112023039D01*
X97476568Y-111853812D01*
X97327327Y-111963013D01*
X96971727Y-111963013D01*
X96822486Y-111853812D01*
X96508801Y-112023039D01*
X96267098Y-112326013D01*
X96159737Y-112698420D01*
X70129200Y-112698420D01*
X70129200Y-112656041D01*
X69865945Y-112020487D01*
X69379513Y-111534055D01*
X68743959Y-111270800D01*
X68056041Y-111270800D01*
X67420487Y-111534055D01*
X66934055Y-112020487D01*
X66933925Y-112020800D01*
X62096434Y-112020800D01*
X61999999Y-112001618D01*
X61903564Y-112020800D01*
X61903560Y-112020800D01*
X61617935Y-112077614D01*
X61450645Y-112189394D01*
X61375794Y-112239408D01*
X61375793Y-112239409D01*
X61294037Y-112294037D01*
X61239409Y-112375793D01*
X60342469Y-113272734D01*
X60317935Y-113277614D01*
X60075794Y-113439408D01*
X60075793Y-113439409D01*
X59994037Y-113494037D01*
X59939409Y-113575793D01*
X58475794Y-115039409D01*
X58394038Y-115094037D01*
X58339410Y-115175793D01*
X58339408Y-115175795D01*
X58177614Y-115417936D01*
X58101618Y-115800000D01*
X58120801Y-115896441D01*
X58120800Y-128115722D01*
X56915723Y-129320800D01*
X56666075Y-129320800D01*
X56665945Y-129320487D01*
X56179513Y-128834055D01*
X55543959Y-128570800D01*
X54856041Y-128570800D01*
X54220487Y-128834055D01*
X53734055Y-129320487D01*
X53470800Y-129956041D01*
X49176200Y-129956041D01*
X49176200Y-106606041D01*
X52520800Y-106606041D01*
X52520800Y-107293959D01*
X52784055Y-107929513D01*
X53270487Y-108415945D01*
X53270800Y-108416075D01*
X53270801Y-124253559D01*
X53251618Y-124350000D01*
X53327614Y-124732064D01*
X53473276Y-124950062D01*
X53470800Y-124956041D01*
X53470800Y-125643959D01*
X53734055Y-126279513D01*
X54220487Y-126765945D01*
X54856041Y-127029200D01*
X55543959Y-127029200D01*
X56179513Y-126765945D01*
X56665945Y-126279513D01*
X56929200Y-125643959D01*
X56929200Y-124956041D01*
X56665945Y-124320487D01*
X56179513Y-123834055D01*
X55543959Y-123570800D01*
X55229200Y-123570800D01*
X55229200Y-108416075D01*
X55229513Y-108415945D01*
X55715945Y-107929513D01*
X55979200Y-107293959D01*
X55979200Y-106655769D01*
X64970800Y-106655769D01*
X64970800Y-107244231D01*
X65195995Y-107787899D01*
X65612101Y-108204005D01*
X66155769Y-108429200D01*
X66744231Y-108429200D01*
X67287899Y-108204005D01*
X67704005Y-107787899D01*
X67929200Y-107244231D01*
X67929200Y-106655769D01*
X67704005Y-106112101D01*
X67287899Y-105695995D01*
X66744231Y-105470800D01*
X66155769Y-105470800D01*
X65612101Y-105695995D01*
X65195995Y-106112101D01*
X64970800Y-106655769D01*
X55979200Y-106655769D01*
X55979200Y-106606041D01*
X55715945Y-105970487D01*
X55229513Y-105484055D01*
X54593959Y-105220800D01*
X53906041Y-105220800D01*
X53270487Y-105484055D01*
X52784055Y-105970487D01*
X52520800Y-106606041D01*
X49176200Y-106606041D01*
X49176200Y-102922837D01*
X50828610Y-102922837D01*
X51148390Y-103351014D01*
X52380372Y-103842574D01*
X53706685Y-103825257D01*
X54851610Y-103351014D01*
X55171390Y-102922837D01*
X53000000Y-100751447D01*
X50828610Y-102922837D01*
X49176200Y-102922837D01*
X49176200Y-99880372D01*
X49657426Y-99880372D01*
X49674743Y-101206685D01*
X50148986Y-102351610D01*
X50577163Y-102671390D01*
X52748553Y-100500000D01*
X53251447Y-100500000D01*
X55422837Y-102671390D01*
X55851014Y-102351610D01*
X56342574Y-101119628D01*
X56325257Y-99793315D01*
X55851014Y-98648390D01*
X55422837Y-98328610D01*
X53251447Y-100500000D01*
X52748553Y-100500000D01*
X50577163Y-98328610D01*
X50148986Y-98648390D01*
X49657426Y-99880372D01*
X49176200Y-99880372D01*
X49176200Y-98077163D01*
X50828610Y-98077163D01*
X53000000Y-100248553D01*
X55171390Y-98077163D01*
X55056134Y-97922837D01*
X64828610Y-97922837D01*
X65148390Y-98351014D01*
X66380372Y-98842574D01*
X67706685Y-98825257D01*
X68851610Y-98351014D01*
X69171390Y-97922837D01*
X111828610Y-97922837D01*
X112148390Y-98351014D01*
X113380372Y-98842574D01*
X114706685Y-98825257D01*
X115851610Y-98351014D01*
X116171390Y-97922837D01*
X114000000Y-95751447D01*
X111828610Y-97922837D01*
X69171390Y-97922837D01*
X67000000Y-95751447D01*
X64828610Y-97922837D01*
X55056134Y-97922837D01*
X54851610Y-97648986D01*
X53619628Y-97157426D01*
X52293315Y-97174743D01*
X51148390Y-97648986D01*
X50828610Y-98077163D01*
X49176200Y-98077163D01*
X49176200Y-95076200D01*
X58100000Y-95076200D01*
X58129160Y-95070400D01*
X58153882Y-95053882D01*
X58170400Y-95029160D01*
X58176200Y-95000000D01*
X58176200Y-94880372D01*
X63657426Y-94880372D01*
X63674743Y-96206685D01*
X64148986Y-97351610D01*
X64577163Y-97671390D01*
X66748553Y-95500000D01*
X67251447Y-95500000D01*
X69422837Y-97671390D01*
X69851014Y-97351610D01*
X70342574Y-96119628D01*
X70326394Y-94880372D01*
X110657426Y-94880372D01*
X110674743Y-96206685D01*
X111148986Y-97351610D01*
X111577163Y-97671390D01*
X113748553Y-95500000D01*
X114251447Y-95500000D01*
X116422837Y-97671390D01*
X116851014Y-97351610D01*
X117342574Y-96119628D01*
X117325257Y-94793315D01*
X116851014Y-93648390D01*
X116422837Y-93328610D01*
X114251447Y-95500000D01*
X113748553Y-95500000D01*
X111577163Y-93328610D01*
X111148986Y-93648390D01*
X110657426Y-94880372D01*
X70326394Y-94880372D01*
X70325257Y-94793315D01*
X69854564Y-93656960D01*
X85944488Y-93656960D01*
X86050201Y-93903321D01*
X86648109Y-94102569D01*
X87276753Y-94057841D01*
X87649799Y-93903321D01*
X87755512Y-93656960D01*
X86850000Y-92751447D01*
X85944488Y-93656960D01*
X69854564Y-93656960D01*
X69851014Y-93648390D01*
X69422837Y-93328610D01*
X67251447Y-95500000D01*
X66748553Y-95500000D01*
X64577163Y-93328610D01*
X64148986Y-93648390D01*
X63657426Y-94880372D01*
X58176200Y-94880372D01*
X58176200Y-93077163D01*
X64828610Y-93077163D01*
X67000000Y-95248553D01*
X69171390Y-93077163D01*
X68851610Y-92648986D01*
X67972218Y-92298109D01*
X85247431Y-92298109D01*
X85292159Y-92926753D01*
X85446679Y-93299799D01*
X85693040Y-93405512D01*
X86598553Y-92500000D01*
X87101447Y-92500000D01*
X88006960Y-93405512D01*
X88253321Y-93299799D01*
X88296786Y-93169369D01*
X88307935Y-93196286D01*
X88653714Y-93542065D01*
X89105497Y-93729200D01*
X89594503Y-93729200D01*
X90046286Y-93542065D01*
X90392065Y-93196286D01*
X90579200Y-92744503D01*
X90579200Y-92255497D01*
X90620800Y-92255497D01*
X90620800Y-92744503D01*
X90807935Y-93196286D01*
X91153714Y-93542065D01*
X91605497Y-93729200D01*
X92094503Y-93729200D01*
X92546286Y-93542065D01*
X92892065Y-93196286D01*
X93079200Y-92744503D01*
X93079200Y-92255497D01*
X93120800Y-92255497D01*
X93120800Y-92744503D01*
X93307935Y-93196286D01*
X93653714Y-93542065D01*
X94105497Y-93729200D01*
X94594503Y-93729200D01*
X95046286Y-93542065D01*
X95392065Y-93196286D01*
X95441407Y-93077163D01*
X111828610Y-93077163D01*
X114000000Y-95248553D01*
X116171390Y-93077163D01*
X115851610Y-92648986D01*
X114619628Y-92157426D01*
X113293315Y-92174743D01*
X112148390Y-92648986D01*
X111828610Y-93077163D01*
X95441407Y-93077163D01*
X95579200Y-92744503D01*
X95579200Y-92255497D01*
X95392065Y-91803714D01*
X95046286Y-91457935D01*
X94594503Y-91270800D01*
X94105497Y-91270800D01*
X93653714Y-91457935D01*
X93307935Y-91803714D01*
X93120800Y-92255497D01*
X93079200Y-92255497D01*
X92892065Y-91803714D01*
X92546286Y-91457935D01*
X92094503Y-91270800D01*
X91605497Y-91270800D01*
X91153714Y-91457935D01*
X90807935Y-91803714D01*
X90620800Y-92255497D01*
X90579200Y-92255497D01*
X90392065Y-91803714D01*
X90046286Y-91457935D01*
X89594503Y-91270800D01*
X89105497Y-91270800D01*
X88653714Y-91457935D01*
X88307935Y-91803714D01*
X88302066Y-91817883D01*
X88253321Y-91700201D01*
X88006960Y-91594488D01*
X87101447Y-92500000D01*
X86598553Y-92500000D01*
X85693040Y-91594488D01*
X85446679Y-91700201D01*
X85247431Y-92298109D01*
X67972218Y-92298109D01*
X67619628Y-92157426D01*
X66293315Y-92174743D01*
X65148390Y-92648986D01*
X64828610Y-93077163D01*
X58176200Y-93077163D01*
X58176200Y-91343040D01*
X85944488Y-91343040D01*
X86850000Y-92248553D01*
X87755512Y-91343040D01*
X87649799Y-91096679D01*
X87051891Y-90897431D01*
X86423247Y-90942159D01*
X86050201Y-91096679D01*
X85944488Y-91343040D01*
X58176200Y-91343040D01*
X58176200Y-86276200D01*
X128123800Y-86276200D01*
X128123800Y-89365800D01*
X128123800Y-89365800D01*
G37*
X128123800Y-89365800D02*
X127723850Y-89365800D01*
X127577800Y-89511850D01*
X127577800Y-91522200D01*
X127597800Y-91522200D01*
X127597800Y-91877800D01*
X127577800Y-91877800D01*
X127577800Y-93888150D01*
X127723850Y-94034200D01*
X128123800Y-94034200D01*
X128123800Y-96000000D01*
X128129600Y-96029160D01*
X128146118Y-96053882D01*
X128170840Y-96070400D01*
X128200000Y-96076200D01*
X137523800Y-96076200D01*
X137523800Y-133023800D01*
X128000000Y-133023800D01*
X127970840Y-133029600D01*
X127946118Y-133046118D01*
X127929600Y-133070840D01*
X127923800Y-133100000D01*
X127923800Y-142923800D01*
X58176200Y-142923800D01*
X58176200Y-135422837D01*
X64828610Y-135422837D01*
X65148390Y-135851014D01*
X66380372Y-136342574D01*
X67706685Y-136325257D01*
X68851610Y-135851014D01*
X69171390Y-135422837D01*
X67000000Y-133251447D01*
X64828610Y-135422837D01*
X58176200Y-135422837D01*
X58176200Y-134200000D01*
X58170400Y-134170840D01*
X58153882Y-134146118D01*
X58129160Y-134129600D01*
X58100000Y-134123800D01*
X49176200Y-134123800D01*
X49176200Y-132380372D01*
X63657426Y-132380372D01*
X63674743Y-133706685D01*
X64148986Y-134851610D01*
X64577163Y-135171390D01*
X66748553Y-133000000D01*
X67251447Y-133000000D01*
X69422837Y-135171390D01*
X69851014Y-134851610D01*
X70342574Y-133619628D01*
X70325257Y-132293315D01*
X69851014Y-131148390D01*
X69422837Y-130828610D01*
X67251447Y-133000000D01*
X66748553Y-133000000D01*
X64577163Y-130828610D01*
X64148986Y-131148390D01*
X63657426Y-132380372D01*
X49176200Y-132380372D01*
X49176200Y-129956041D01*
X53470800Y-129956041D01*
X53470800Y-130643959D01*
X53734055Y-131279513D01*
X54220487Y-131765945D01*
X54856041Y-132029200D01*
X55543959Y-132029200D01*
X56179513Y-131765945D01*
X56665945Y-131279513D01*
X56666075Y-131279200D01*
X57224884Y-131279200D01*
X57321320Y-131298382D01*
X57417756Y-131279200D01*
X57417760Y-131279200D01*
X57703385Y-131222386D01*
X58027283Y-131005963D01*
X58081913Y-130924204D01*
X58428954Y-130577163D01*
X64828610Y-130577163D01*
X67000000Y-132748553D01*
X69171390Y-130577163D01*
X68851610Y-130148986D01*
X67619628Y-129657426D01*
X66293315Y-129674743D01*
X65148390Y-130148986D01*
X64828610Y-130577163D01*
X58428954Y-130577163D01*
X59724207Y-129281910D01*
X59805963Y-129227283D01*
X60022386Y-128903385D01*
X60079200Y-128617760D01*
X60079200Y-128617756D01*
X60098382Y-128521321D01*
X60079200Y-128424886D01*
X60079200Y-117700000D01*
X62811412Y-117700000D01*
X62820801Y-117747201D01*
X62820800Y-120752804D01*
X62811412Y-120800000D01*
X62820800Y-120847195D01*
X62848604Y-120986974D01*
X62954516Y-121145484D01*
X62994531Y-121172221D01*
X65627781Y-123805472D01*
X65654516Y-123845484D01*
X65813025Y-123951396D01*
X65952804Y-123979200D01*
X66000000Y-123988588D01*
X66047196Y-123979200D01*
X68285508Y-123979200D01*
X70820801Y-126514495D01*
X70820800Y-135052804D01*
X70811412Y-135100000D01*
X70820800Y-135147195D01*
X70848604Y-135286974D01*
X70954516Y-135445484D01*
X70994531Y-135472221D01*
X72827781Y-137305472D01*
X72854516Y-137345484D01*
X73013025Y-137451396D01*
X73152804Y-137479200D01*
X73200000Y-137488588D01*
X73247196Y-137479200D01*
X80674025Y-137479200D01*
X80794736Y-137529200D01*
X81005264Y-137529200D01*
X81125975Y-137479200D01*
X82335825Y-137479200D01*
X83062097Y-138205474D01*
X83088831Y-138245484D01*
X83128840Y-138272217D01*
X83128841Y-138272218D01*
X83247340Y-138351396D01*
X83434314Y-138388588D01*
X83481510Y-138379200D01*
X83774025Y-138379200D01*
X83894736Y-138429200D01*
X84105264Y-138429200D01*
X84225975Y-138379200D01*
X95616818Y-138379200D01*
X95664014Y-138388588D01*
X95711210Y-138379200D01*
X95850989Y-138351396D01*
X96009498Y-138245484D01*
X96036235Y-138205469D01*
X97286219Y-136955487D01*
X97391792Y-136955487D01*
X97395034Y-136971787D01*
X97534100Y-137179914D01*
X97742226Y-137318980D01*
X97987727Y-137367813D01*
X98233227Y-137318980D01*
X98441354Y-137179914D01*
X98580420Y-136971788D01*
X98612727Y-136809368D01*
X98645034Y-136971787D01*
X98784100Y-137179914D01*
X98992226Y-137318980D01*
X99237727Y-137367813D01*
X99483227Y-137318980D01*
X99523941Y-137291776D01*
X99592466Y-137457209D01*
X99756804Y-137621548D01*
X99971522Y-137710487D01*
X100163877Y-137710487D01*
X100309927Y-137564437D01*
X100309927Y-136654087D01*
X100665527Y-136654087D01*
X100665527Y-137564437D01*
X100811577Y-137710487D01*
X101003932Y-137710487D01*
X101218650Y-137621548D01*
X101382988Y-137457209D01*
X101471927Y-137242491D01*
X101471927Y-136800137D01*
X101325877Y-136654087D01*
X100665527Y-136654087D01*
X100309927Y-136654087D01*
X100289927Y-136654087D01*
X100289927Y-136298487D01*
X100309927Y-136298487D01*
X100309927Y-135388137D01*
X100665527Y-135388137D01*
X100665527Y-136298487D01*
X101325877Y-136298487D01*
X101471927Y-136152437D01*
X101471927Y-135710083D01*
X101382988Y-135495365D01*
X101218650Y-135331026D01*
X101003932Y-135242087D01*
X100811577Y-135242087D01*
X100665527Y-135388137D01*
X100309927Y-135388137D01*
X100163877Y-135242087D01*
X99971522Y-135242087D01*
X99756804Y-135331026D01*
X99592466Y-135495365D01*
X99523941Y-135660798D01*
X99483228Y-135633594D01*
X99237727Y-135584761D01*
X98992227Y-135633594D01*
X98784101Y-135772660D01*
X98645034Y-135980786D01*
X98612727Y-136143205D01*
X98580420Y-135980786D01*
X98441354Y-135772660D01*
X98233228Y-135633594D01*
X97987727Y-135584761D01*
X97742227Y-135633594D01*
X97534101Y-135772660D01*
X97395034Y-135980786D01*
X97391792Y-135997087D01*
X97134918Y-135997087D01*
X97087726Y-135987700D01*
X97040534Y-135997087D01*
X97040531Y-135997087D01*
X96900752Y-136024891D01*
X96742243Y-136130803D01*
X96715510Y-136170813D01*
X95465524Y-137420800D01*
X89400969Y-137420800D01*
X89552407Y-137230972D01*
X89703126Y-137331680D01*
X89948627Y-137380513D01*
X90194127Y-137331680D01*
X90402254Y-137192614D01*
X90541320Y-136984488D01*
X90573627Y-136822068D01*
X90605934Y-136984487D01*
X90745000Y-137192614D01*
X90953126Y-137331680D01*
X91198627Y-137380513D01*
X91444127Y-137331680D01*
X91652254Y-137192614D01*
X91791320Y-136984488D01*
X91823627Y-136822068D01*
X91855934Y-136984487D01*
X91995000Y-137192614D01*
X92203126Y-137331680D01*
X92448627Y-137380513D01*
X92694127Y-137331680D01*
X92902254Y-137192614D01*
X93041320Y-136984488D01*
X93064937Y-136865757D01*
X93064937Y-137138987D01*
X93082726Y-137228416D01*
X93133383Y-137304231D01*
X93209198Y-137354888D01*
X93298627Y-137372677D01*
X94098627Y-137372677D01*
X94188056Y-137354888D01*
X94263871Y-137304231D01*
X94314528Y-137228416D01*
X94332317Y-137138987D01*
X94332317Y-135838987D01*
X94314528Y-135749558D01*
X94263871Y-135673743D01*
X94188056Y-135623086D01*
X94098627Y-135605297D01*
X93298627Y-135605297D01*
X93209198Y-135623086D01*
X93133383Y-135673743D01*
X93082726Y-135749558D01*
X93064937Y-135838987D01*
X93064937Y-136112217D01*
X93041320Y-135993486D01*
X92902254Y-135785360D01*
X92694128Y-135646294D01*
X92448627Y-135597461D01*
X92203127Y-135646294D01*
X91995001Y-135785360D01*
X91855934Y-135993486D01*
X91823627Y-136155905D01*
X91791320Y-135993486D01*
X91652254Y-135785360D01*
X91444128Y-135646294D01*
X91198627Y-135597461D01*
X90953127Y-135646294D01*
X90745001Y-135785360D01*
X90605934Y-135993486D01*
X90573627Y-136155905D01*
X90541320Y-135993486D01*
X90402254Y-135785360D01*
X90194128Y-135646294D01*
X89948627Y-135597461D01*
X89703127Y-135646294D01*
X89552407Y-135747002D01*
X89339353Y-135479939D01*
X89025668Y-135310712D01*
X88876427Y-135419913D01*
X88876427Y-136311187D01*
X88896427Y-136311187D01*
X88896427Y-136666787D01*
X88876427Y-136666787D01*
X88876427Y-136686787D01*
X88520827Y-136686787D01*
X88520827Y-136666787D01*
X87853985Y-136666787D01*
X87708837Y-136822654D01*
X87816198Y-137195061D01*
X87996285Y-137420800D01*
X84225975Y-137420800D01*
X84105264Y-137370800D01*
X83894736Y-137370800D01*
X83774025Y-137420800D01*
X83632807Y-137420800D01*
X82906536Y-136694531D01*
X82879799Y-136654516D01*
X82721290Y-136548604D01*
X82581511Y-136520800D01*
X82534315Y-136511412D01*
X82487119Y-136520800D01*
X81125975Y-136520800D01*
X81005264Y-136470800D01*
X80794736Y-136470800D01*
X80674025Y-136520800D01*
X73398491Y-136520800D01*
X73033011Y-136155320D01*
X87708837Y-136155320D01*
X87853985Y-136311187D01*
X88520827Y-136311187D01*
X88520827Y-135419913D01*
X88371586Y-135310712D01*
X88057901Y-135479939D01*
X87816198Y-135782913D01*
X87708837Y-136155320D01*
X73033011Y-136155320D01*
X71779200Y-134901510D01*
X71779200Y-132427602D01*
X71900232Y-132548634D01*
X72094736Y-132629200D01*
X72305264Y-132629200D01*
X72499768Y-132548634D01*
X72642702Y-132405700D01*
X75957298Y-132405700D01*
X76100232Y-132548634D01*
X76294736Y-132629200D01*
X76505264Y-132629200D01*
X76699768Y-132548634D01*
X76848634Y-132399768D01*
X76929200Y-132205264D01*
X76929200Y-131994736D01*
X76848634Y-131800232D01*
X76699768Y-131651366D01*
X76505264Y-131570800D01*
X76294736Y-131570800D01*
X76100232Y-131651366D01*
X75957298Y-131794300D01*
X72642702Y-131794300D01*
X72499768Y-131651366D01*
X72305264Y-131570800D01*
X72094736Y-131570800D01*
X71900232Y-131651366D01*
X71779200Y-131772398D01*
X71779200Y-130194736D01*
X78270800Y-130194736D01*
X78270800Y-130405264D01*
X78351366Y-130599768D01*
X78500232Y-130748634D01*
X78694736Y-130829200D01*
X78905264Y-130829200D01*
X79099768Y-130748634D01*
X79238615Y-130609787D01*
X91898925Y-130609787D01*
X92041859Y-130752721D01*
X92236363Y-130833287D01*
X92446891Y-130833287D01*
X92641395Y-130752721D01*
X92790261Y-130603855D01*
X92870827Y-130409351D01*
X92870827Y-130198823D01*
X92790261Y-130004319D01*
X92641395Y-129855453D01*
X92446891Y-129774887D01*
X92236363Y-129774887D01*
X92041859Y-129855453D01*
X91898925Y-129998387D01*
X79246789Y-129998387D01*
X79099768Y-129851366D01*
X78905264Y-129770800D01*
X78694736Y-129770800D01*
X78500232Y-129851366D01*
X78351366Y-130000232D01*
X78270800Y-130194736D01*
X71779200Y-130194736D01*
X71779200Y-126363197D01*
X71788588Y-126316001D01*
X71751396Y-126129027D01*
X71672218Y-126010528D01*
X71672217Y-126010527D01*
X71645484Y-125970518D01*
X71605475Y-125943785D01*
X68856219Y-123194531D01*
X68829482Y-123154516D01*
X68670973Y-123048604D01*
X68531194Y-123020800D01*
X68483998Y-123011412D01*
X68436802Y-123020800D01*
X66198491Y-123020800D01*
X63779200Y-120601510D01*
X63779200Y-118655769D01*
X64970800Y-118655769D01*
X64970800Y-119244231D01*
X65195995Y-119787899D01*
X65612101Y-120204005D01*
X66155769Y-120429200D01*
X66744231Y-120429200D01*
X67227931Y-120228844D01*
X76424874Y-129425788D01*
X76444636Y-129455364D01*
X76561798Y-129533649D01*
X76699999Y-129561139D01*
X76734884Y-129554200D01*
X93465115Y-129554200D01*
X93500000Y-129561139D01*
X93534885Y-129554200D01*
X93638202Y-129533649D01*
X93755364Y-129455364D01*
X93775128Y-129425785D01*
X94800781Y-128400134D01*
X94823800Y-128384753D01*
X94823800Y-133500000D01*
X94829600Y-133529160D01*
X94846118Y-133553882D01*
X94870840Y-133570400D01*
X94900000Y-133576200D01*
X101500000Y-133576200D01*
X101529160Y-133570400D01*
X101553882Y-133553882D01*
X101570400Y-133529160D01*
X101576200Y-133500000D01*
X101576200Y-128678328D01*
X104645927Y-128678328D01*
X104645927Y-129366246D01*
X104909182Y-130001800D01*
X105395614Y-130488232D01*
X105395927Y-130488362D01*
X105395928Y-132556212D01*
X105395614Y-132556342D01*
X104909182Y-133042774D01*
X104645927Y-133678328D01*
X104645927Y-134366246D01*
X104909182Y-135001800D01*
X105395614Y-135488232D01*
X106031168Y-135751487D01*
X106719086Y-135751487D01*
X107354640Y-135488232D01*
X107420035Y-135422837D01*
X111828610Y-135422837D01*
X112148390Y-135851014D01*
X113380372Y-136342574D01*
X114706685Y-136325257D01*
X115851610Y-135851014D01*
X116171390Y-135422837D01*
X114000000Y-133251447D01*
X111828610Y-135422837D01*
X107420035Y-135422837D01*
X107841072Y-135001800D01*
X108104327Y-134366246D01*
X108104327Y-133678328D01*
X107841072Y-133042774D01*
X107354640Y-132556342D01*
X107354327Y-132556212D01*
X107354327Y-132380372D01*
X110657426Y-132380372D01*
X110674743Y-133706685D01*
X111148986Y-134851610D01*
X111577163Y-135171390D01*
X113748553Y-133000000D01*
X114251447Y-133000000D01*
X116422837Y-135171390D01*
X116851014Y-134851610D01*
X117342574Y-133619628D01*
X117325257Y-132293315D01*
X116851014Y-131148390D01*
X116422837Y-130828610D01*
X114251447Y-133000000D01*
X113748553Y-133000000D01*
X111577163Y-130828610D01*
X111148986Y-131148390D01*
X110657426Y-132380372D01*
X107354327Y-132380372D01*
X107354327Y-130577163D01*
X111828610Y-130577163D01*
X114000000Y-132748553D01*
X116171390Y-130577163D01*
X115851610Y-130148986D01*
X115284820Y-129922837D01*
X126328610Y-129922837D01*
X126648390Y-130351014D01*
X127880372Y-130842574D01*
X129206685Y-130825257D01*
X130351610Y-130351014D01*
X130671390Y-129922837D01*
X128500000Y-127751447D01*
X126328610Y-129922837D01*
X115284820Y-129922837D01*
X114619628Y-129657426D01*
X113293315Y-129674743D01*
X112148390Y-130148986D01*
X111828610Y-130577163D01*
X107354327Y-130577163D01*
X107354327Y-130488362D01*
X107354640Y-130488232D01*
X107841072Y-130001800D01*
X108104327Y-129366246D01*
X108104327Y-128678328D01*
X108104197Y-128678014D01*
X109901839Y-126880372D01*
X125157426Y-126880372D01*
X125174743Y-128206685D01*
X125648986Y-129351610D01*
X126077163Y-129671390D01*
X128248553Y-127500000D01*
X128751447Y-127500000D01*
X130922837Y-129671390D01*
X131351014Y-129351610D01*
X131842574Y-128119628D01*
X131825257Y-126793315D01*
X131351014Y-125648390D01*
X130922837Y-125328610D01*
X128751447Y-127500000D01*
X128248553Y-127500000D01*
X126077163Y-125328610D01*
X125648986Y-125648390D01*
X125157426Y-126880372D01*
X109901839Y-126880372D01*
X111063334Y-125718878D01*
X111145090Y-125664250D01*
X111361513Y-125340352D01*
X111413864Y-125077163D01*
X126328610Y-125077163D01*
X128500000Y-127248553D01*
X130671390Y-125077163D01*
X130351610Y-124648986D01*
X129119628Y-124157426D01*
X127793315Y-124174743D01*
X126648390Y-124648986D01*
X126328610Y-125077163D01*
X111413864Y-125077163D01*
X111418327Y-125054727D01*
X111418327Y-125054723D01*
X111437509Y-124958287D01*
X111418327Y-124861851D01*
X111418327Y-112434384D01*
X119524208Y-104328504D01*
X119605963Y-104273877D01*
X119822386Y-103949979D01*
X119879200Y-103664354D01*
X119879200Y-103664350D01*
X119898382Y-103567915D01*
X119879200Y-103471480D01*
X119879200Y-95023850D01*
X120365800Y-95023850D01*
X120365800Y-96566205D01*
X120454739Y-96780923D01*
X120619078Y-96945261D01*
X120833796Y-97034200D01*
X122376150Y-97034200D01*
X122522200Y-96888150D01*
X122522200Y-94877800D01*
X122877800Y-94877800D01*
X122877800Y-96888150D01*
X123023850Y-97034200D01*
X124566204Y-97034200D01*
X124780922Y-96945261D01*
X124945261Y-96780923D01*
X125034200Y-96566205D01*
X125034200Y-95023850D01*
X124888150Y-94877800D01*
X122877800Y-94877800D01*
X122522200Y-94877800D01*
X120511850Y-94877800D01*
X120365800Y-95023850D01*
X119879200Y-95023850D01*
X119879200Y-92833795D01*
X120365800Y-92833795D01*
X120365800Y-94376150D01*
X120511850Y-94522200D01*
X122522200Y-94522200D01*
X122522200Y-92511850D01*
X122877800Y-92511850D01*
X122877800Y-94522200D01*
X124888150Y-94522200D01*
X125034200Y-94376150D01*
X125034200Y-92833795D01*
X124945261Y-92619077D01*
X124780922Y-92454739D01*
X124566204Y-92365800D01*
X123023850Y-92365800D01*
X122877800Y-92511850D01*
X122522200Y-92511850D01*
X122376150Y-92365800D01*
X120833796Y-92365800D01*
X120619078Y-92454739D01*
X120454739Y-92619077D01*
X120365800Y-92833795D01*
X119879200Y-92833795D01*
X119879200Y-92023850D01*
X125065800Y-92023850D01*
X125065800Y-93566205D01*
X125154739Y-93780923D01*
X125319078Y-93945261D01*
X125533796Y-94034200D01*
X127076150Y-94034200D01*
X127222200Y-93888150D01*
X127222200Y-91877800D01*
X125211850Y-91877800D01*
X125065800Y-92023850D01*
X119879200Y-92023850D01*
X119879200Y-89679200D01*
X120716310Y-89679200D01*
X120716310Y-90450000D01*
X120734099Y-90539429D01*
X120784756Y-90615244D01*
X120860571Y-90665901D01*
X120950000Y-90683690D01*
X124450000Y-90683690D01*
X124539429Y-90665901D01*
X124615244Y-90615244D01*
X124665901Y-90539429D01*
X124683690Y-90450000D01*
X124683690Y-89833795D01*
X125065800Y-89833795D01*
X125065800Y-91376150D01*
X125211850Y-91522200D01*
X127222200Y-91522200D01*
X127222200Y-89511850D01*
X127076150Y-89365800D01*
X125533796Y-89365800D01*
X125319078Y-89454739D01*
X125154739Y-89619077D01*
X125065800Y-89833795D01*
X124683690Y-89833795D01*
X124683690Y-86950000D01*
X124665901Y-86860571D01*
X124615244Y-86784756D01*
X124539429Y-86734099D01*
X124450000Y-86716310D01*
X120950000Y-86716310D01*
X120860571Y-86734099D01*
X120784756Y-86784756D01*
X120734099Y-86860571D01*
X120716310Y-86950000D01*
X120716310Y-87720800D01*
X119546434Y-87720800D01*
X119449999Y-87701618D01*
X119353564Y-87720800D01*
X119353560Y-87720800D01*
X119067935Y-87777614D01*
X118744037Y-87994037D01*
X118689407Y-88075796D01*
X118275794Y-88489409D01*
X118194038Y-88544037D01*
X118139410Y-88625793D01*
X118139408Y-88625795D01*
X117977614Y-88867936D01*
X117901618Y-89250000D01*
X117920801Y-89346441D01*
X117920800Y-103162316D01*
X109814923Y-111268194D01*
X109733164Y-111322824D01*
X109516741Y-111646723D01*
X109459927Y-111932348D01*
X109459927Y-111932351D01*
X109440745Y-112028787D01*
X109459927Y-112125223D01*
X109459928Y-124552688D01*
X106719400Y-127293217D01*
X106719086Y-127293087D01*
X106031168Y-127293087D01*
X105395614Y-127556342D01*
X104909182Y-128042774D01*
X104645927Y-128678328D01*
X101576200Y-128678328D01*
X101576200Y-116800000D01*
X101570400Y-116770840D01*
X101553882Y-116746118D01*
X101529160Y-116729600D01*
X101500000Y-116723800D01*
X95017477Y-116723800D01*
X95187078Y-116554200D01*
X105395927Y-116554200D01*
X105395927Y-116556212D01*
X105395614Y-116556342D01*
X104909182Y-117042774D01*
X104645927Y-117678328D01*
X104645927Y-118366246D01*
X104909182Y-119001800D01*
X105395614Y-119488232D01*
X106031168Y-119751487D01*
X106719086Y-119751487D01*
X107354640Y-119488232D01*
X107841072Y-119001800D01*
X108104327Y-118366246D01*
X108104327Y-117678328D01*
X107841072Y-117042774D01*
X107354640Y-116556342D01*
X107354327Y-116556212D01*
X107354327Y-114488362D01*
X107354640Y-114488232D01*
X107841072Y-114001800D01*
X108104327Y-113366246D01*
X108104327Y-112678328D01*
X107841072Y-112042774D01*
X107354640Y-111556342D01*
X106719086Y-111293087D01*
X106031168Y-111293087D01*
X105395614Y-111556342D01*
X104909182Y-112042774D01*
X104645927Y-112678328D01*
X104645927Y-113366246D01*
X104909182Y-114001800D01*
X105395614Y-114488232D01*
X105395927Y-114488362D01*
X105395928Y-115845800D01*
X95075247Y-115845800D01*
X95040363Y-115838861D01*
X95005479Y-115845800D01*
X94902162Y-115866351D01*
X94785000Y-115944636D01*
X94765238Y-115974212D01*
X94349203Y-116390248D01*
X94319626Y-116410011D01*
X94267123Y-116488588D01*
X94241341Y-116527173D01*
X94213851Y-116665374D01*
X94220790Y-116700259D01*
X94220791Y-127978294D01*
X93353287Y-128845800D01*
X76846714Y-128845800D01*
X67728844Y-119727931D01*
X67852583Y-119429200D01*
X70702804Y-119429200D01*
X70750000Y-119438588D01*
X70797196Y-119429200D01*
X70936975Y-119401396D01*
X71095484Y-119295484D01*
X71122221Y-119255469D01*
X74079057Y-116298634D01*
X74199768Y-116248634D01*
X74348634Y-116099768D01*
X74429200Y-115905264D01*
X74429200Y-115694736D01*
X74348634Y-115500232D01*
X74199768Y-115351366D01*
X74005264Y-115270800D01*
X73794736Y-115270800D01*
X73600232Y-115351366D01*
X73451366Y-115500232D01*
X73401366Y-115620943D01*
X70551510Y-118470800D01*
X67852583Y-118470800D01*
X67704005Y-118112101D01*
X67287899Y-117695995D01*
X66744231Y-117470800D01*
X66155769Y-117470800D01*
X65612101Y-117695995D01*
X65195995Y-118112101D01*
X64970800Y-118655769D01*
X63779200Y-118655769D01*
X63779200Y-117898490D01*
X65198491Y-116479200D01*
X70352804Y-116479200D01*
X70400000Y-116488588D01*
X70447196Y-116479200D01*
X70586975Y-116451396D01*
X70745484Y-116345484D01*
X70772221Y-116305469D01*
X72638729Y-114438961D01*
X82670800Y-114438961D01*
X82670800Y-114649489D01*
X82751366Y-114843993D01*
X82891403Y-114984030D01*
X82894300Y-114998593D01*
X82894300Y-114998598D01*
X82909185Y-115073425D01*
X82912038Y-115087767D01*
X82962548Y-115163361D01*
X82962550Y-115163363D01*
X82979604Y-115188886D01*
X83005127Y-115205940D01*
X86294300Y-118495114D01*
X86294301Y-127157297D01*
X86151366Y-127300232D01*
X86070800Y-127494736D01*
X86070800Y-127705264D01*
X86151366Y-127899768D01*
X86300232Y-128048634D01*
X86494736Y-128129200D01*
X86705264Y-128129200D01*
X86899768Y-128048634D01*
X87048634Y-127899768D01*
X87129200Y-127705264D01*
X87129200Y-127494736D01*
X87048634Y-127300232D01*
X86905700Y-127157298D01*
X86905700Y-118398592D01*
X86911688Y-118368488D01*
X86905700Y-118338384D01*
X86905700Y-118338380D01*
X86887963Y-118249211D01*
X86820397Y-118148092D01*
X86794874Y-118131038D01*
X83578231Y-114914396D01*
X83648634Y-114843993D01*
X83729200Y-114649489D01*
X83729200Y-114438961D01*
X83648634Y-114244457D01*
X83499768Y-114095591D01*
X83305264Y-114015025D01*
X83094736Y-114015025D01*
X82900232Y-114095591D01*
X82751366Y-114244457D01*
X82670800Y-114438961D01*
X72638729Y-114438961D01*
X72798491Y-114279200D01*
X75574025Y-114279200D01*
X75694736Y-114329200D01*
X75905264Y-114329200D01*
X76099768Y-114248634D01*
X76248634Y-114099768D01*
X76329200Y-113905264D01*
X76329200Y-113694736D01*
X76248634Y-113500232D01*
X76114156Y-113365754D01*
X96159737Y-113365754D01*
X96267098Y-113738161D01*
X96508801Y-114041135D01*
X96822486Y-114210362D01*
X96971727Y-114101161D01*
X96971727Y-113209887D01*
X96304885Y-113209887D01*
X96159737Y-113365754D01*
X76114156Y-113365754D01*
X76099768Y-113351366D01*
X75905264Y-113270800D01*
X75694736Y-113270800D01*
X75574025Y-113320800D01*
X72647196Y-113320800D01*
X72600000Y-113311412D01*
X72552804Y-113320800D01*
X72413025Y-113348604D01*
X72254516Y-113454516D01*
X72227781Y-113494528D01*
X70201510Y-115520800D01*
X65047195Y-115520800D01*
X64999999Y-115511412D01*
X64895183Y-115532262D01*
X64813025Y-115548604D01*
X64654516Y-115654516D01*
X64627781Y-115694528D01*
X62994529Y-117327781D01*
X62954517Y-117354516D01*
X62927782Y-117394528D01*
X62848604Y-117513027D01*
X62811412Y-117700000D01*
X60079200Y-117700000D01*
X60079200Y-116205597D01*
X61157532Y-115127266D01*
X61182065Y-115122386D01*
X61505963Y-114905963D01*
X61560593Y-114824204D01*
X62405598Y-113979200D01*
X66933925Y-113979200D01*
X66934055Y-113979513D01*
X67420487Y-114465945D01*
X68056041Y-114729200D01*
X68743959Y-114729200D01*
X69379513Y-114465945D01*
X69865945Y-113979513D01*
X70129200Y-113343959D01*
X70129200Y-112698420D01*
X96159737Y-112698420D01*
X96304885Y-112854287D01*
X96971727Y-112854287D01*
X96971727Y-111963013D01*
X97327327Y-111963013D01*
X97327327Y-112854287D01*
X97347327Y-112854287D01*
X97347327Y-113209887D01*
X97327327Y-113209887D01*
X97327327Y-114101161D01*
X97476568Y-114210362D01*
X97790253Y-114041135D01*
X98003307Y-113774072D01*
X98154026Y-113874780D01*
X98399527Y-113923613D01*
X98645027Y-113874780D01*
X98853154Y-113735714D01*
X98992220Y-113527588D01*
X99015837Y-113408857D01*
X99015837Y-113682087D01*
X99033626Y-113771516D01*
X99084283Y-113847331D01*
X99160098Y-113897988D01*
X99249527Y-113915777D01*
X100049527Y-113915777D01*
X100138956Y-113897988D01*
X100214771Y-113847331D01*
X100265428Y-113771516D01*
X100283217Y-113682087D01*
X100283217Y-112382087D01*
X100265428Y-112292658D01*
X100214771Y-112216843D01*
X100138956Y-112166186D01*
X100049527Y-112148397D01*
X99249527Y-112148397D01*
X99160098Y-112166186D01*
X99084283Y-112216843D01*
X99033626Y-112292658D01*
X99015837Y-112382087D01*
X99015837Y-112655317D01*
X98992220Y-112536586D01*
X98853154Y-112328460D01*
X98645028Y-112189394D01*
X98399527Y-112140561D01*
X98154027Y-112189394D01*
X98003307Y-112290102D01*
X97790253Y-112023039D01*
X97476568Y-111853812D01*
X97327327Y-111963013D01*
X96971727Y-111963013D01*
X96822486Y-111853812D01*
X96508801Y-112023039D01*
X96267098Y-112326013D01*
X96159737Y-112698420D01*
X70129200Y-112698420D01*
X70129200Y-112656041D01*
X69865945Y-112020487D01*
X69379513Y-111534055D01*
X68743959Y-111270800D01*
X68056041Y-111270800D01*
X67420487Y-111534055D01*
X66934055Y-112020487D01*
X66933925Y-112020800D01*
X62096434Y-112020800D01*
X61999999Y-112001618D01*
X61903564Y-112020800D01*
X61903560Y-112020800D01*
X61617935Y-112077614D01*
X61450645Y-112189394D01*
X61375794Y-112239408D01*
X61375793Y-112239409D01*
X61294037Y-112294037D01*
X61239409Y-112375793D01*
X60342469Y-113272734D01*
X60317935Y-113277614D01*
X60075794Y-113439408D01*
X60075793Y-113439409D01*
X59994037Y-113494037D01*
X59939409Y-113575793D01*
X58475794Y-115039409D01*
X58394038Y-115094037D01*
X58339410Y-115175793D01*
X58339408Y-115175795D01*
X58177614Y-115417936D01*
X58101618Y-115800000D01*
X58120801Y-115896441D01*
X58120800Y-128115722D01*
X56915723Y-129320800D01*
X56666075Y-129320800D01*
X56665945Y-129320487D01*
X56179513Y-128834055D01*
X55543959Y-128570800D01*
X54856041Y-128570800D01*
X54220487Y-128834055D01*
X53734055Y-129320487D01*
X53470800Y-129956041D01*
X49176200Y-129956041D01*
X49176200Y-106606041D01*
X52520800Y-106606041D01*
X52520800Y-107293959D01*
X52784055Y-107929513D01*
X53270487Y-108415945D01*
X53270800Y-108416075D01*
X53270801Y-124253559D01*
X53251618Y-124350000D01*
X53327614Y-124732064D01*
X53473276Y-124950062D01*
X53470800Y-124956041D01*
X53470800Y-125643959D01*
X53734055Y-126279513D01*
X54220487Y-126765945D01*
X54856041Y-127029200D01*
X55543959Y-127029200D01*
X56179513Y-126765945D01*
X56665945Y-126279513D01*
X56929200Y-125643959D01*
X56929200Y-124956041D01*
X56665945Y-124320487D01*
X56179513Y-123834055D01*
X55543959Y-123570800D01*
X55229200Y-123570800D01*
X55229200Y-108416075D01*
X55229513Y-108415945D01*
X55715945Y-107929513D01*
X55979200Y-107293959D01*
X55979200Y-106655769D01*
X64970800Y-106655769D01*
X64970800Y-107244231D01*
X65195995Y-107787899D01*
X65612101Y-108204005D01*
X66155769Y-108429200D01*
X66744231Y-108429200D01*
X67287899Y-108204005D01*
X67704005Y-107787899D01*
X67929200Y-107244231D01*
X67929200Y-106655769D01*
X67704005Y-106112101D01*
X67287899Y-105695995D01*
X66744231Y-105470800D01*
X66155769Y-105470800D01*
X65612101Y-105695995D01*
X65195995Y-106112101D01*
X64970800Y-106655769D01*
X55979200Y-106655769D01*
X55979200Y-106606041D01*
X55715945Y-105970487D01*
X55229513Y-105484055D01*
X54593959Y-105220800D01*
X53906041Y-105220800D01*
X53270487Y-105484055D01*
X52784055Y-105970487D01*
X52520800Y-106606041D01*
X49176200Y-106606041D01*
X49176200Y-102922837D01*
X50828610Y-102922837D01*
X51148390Y-103351014D01*
X52380372Y-103842574D01*
X53706685Y-103825257D01*
X54851610Y-103351014D01*
X55171390Y-102922837D01*
X53000000Y-100751447D01*
X50828610Y-102922837D01*
X49176200Y-102922837D01*
X49176200Y-99880372D01*
X49657426Y-99880372D01*
X49674743Y-101206685D01*
X50148986Y-102351610D01*
X50577163Y-102671390D01*
X52748553Y-100500000D01*
X53251447Y-100500000D01*
X55422837Y-102671390D01*
X55851014Y-102351610D01*
X56342574Y-101119628D01*
X56325257Y-99793315D01*
X55851014Y-98648390D01*
X55422837Y-98328610D01*
X53251447Y-100500000D01*
X52748553Y-100500000D01*
X50577163Y-98328610D01*
X50148986Y-98648390D01*
X49657426Y-99880372D01*
X49176200Y-99880372D01*
X49176200Y-98077163D01*
X50828610Y-98077163D01*
X53000000Y-100248553D01*
X55171390Y-98077163D01*
X55056134Y-97922837D01*
X64828610Y-97922837D01*
X65148390Y-98351014D01*
X66380372Y-98842574D01*
X67706685Y-98825257D01*
X68851610Y-98351014D01*
X69171390Y-97922837D01*
X111828610Y-97922837D01*
X112148390Y-98351014D01*
X113380372Y-98842574D01*
X114706685Y-98825257D01*
X115851610Y-98351014D01*
X116171390Y-97922837D01*
X114000000Y-95751447D01*
X111828610Y-97922837D01*
X69171390Y-97922837D01*
X67000000Y-95751447D01*
X64828610Y-97922837D01*
X55056134Y-97922837D01*
X54851610Y-97648986D01*
X53619628Y-97157426D01*
X52293315Y-97174743D01*
X51148390Y-97648986D01*
X50828610Y-98077163D01*
X49176200Y-98077163D01*
X49176200Y-95076200D01*
X58100000Y-95076200D01*
X58129160Y-95070400D01*
X58153882Y-95053882D01*
X58170400Y-95029160D01*
X58176200Y-95000000D01*
X58176200Y-94880372D01*
X63657426Y-94880372D01*
X63674743Y-96206685D01*
X64148986Y-97351610D01*
X64577163Y-97671390D01*
X66748553Y-95500000D01*
X67251447Y-95500000D01*
X69422837Y-97671390D01*
X69851014Y-97351610D01*
X70342574Y-96119628D01*
X70326394Y-94880372D01*
X110657426Y-94880372D01*
X110674743Y-96206685D01*
X111148986Y-97351610D01*
X111577163Y-97671390D01*
X113748553Y-95500000D01*
X114251447Y-95500000D01*
X116422837Y-97671390D01*
X116851014Y-97351610D01*
X117342574Y-96119628D01*
X117325257Y-94793315D01*
X116851014Y-93648390D01*
X116422837Y-93328610D01*
X114251447Y-95500000D01*
X113748553Y-95500000D01*
X111577163Y-93328610D01*
X111148986Y-93648390D01*
X110657426Y-94880372D01*
X70326394Y-94880372D01*
X70325257Y-94793315D01*
X69854564Y-93656960D01*
X85944488Y-93656960D01*
X86050201Y-93903321D01*
X86648109Y-94102569D01*
X87276753Y-94057841D01*
X87649799Y-93903321D01*
X87755512Y-93656960D01*
X86850000Y-92751447D01*
X85944488Y-93656960D01*
X69854564Y-93656960D01*
X69851014Y-93648390D01*
X69422837Y-93328610D01*
X67251447Y-95500000D01*
X66748553Y-95500000D01*
X64577163Y-93328610D01*
X64148986Y-93648390D01*
X63657426Y-94880372D01*
X58176200Y-94880372D01*
X58176200Y-93077163D01*
X64828610Y-93077163D01*
X67000000Y-95248553D01*
X69171390Y-93077163D01*
X68851610Y-92648986D01*
X67972218Y-92298109D01*
X85247431Y-92298109D01*
X85292159Y-92926753D01*
X85446679Y-93299799D01*
X85693040Y-93405512D01*
X86598553Y-92500000D01*
X87101447Y-92500000D01*
X88006960Y-93405512D01*
X88253321Y-93299799D01*
X88296786Y-93169369D01*
X88307935Y-93196286D01*
X88653714Y-93542065D01*
X89105497Y-93729200D01*
X89594503Y-93729200D01*
X90046286Y-93542065D01*
X90392065Y-93196286D01*
X90579200Y-92744503D01*
X90579200Y-92255497D01*
X90620800Y-92255497D01*
X90620800Y-92744503D01*
X90807935Y-93196286D01*
X91153714Y-93542065D01*
X91605497Y-93729200D01*
X92094503Y-93729200D01*
X92546286Y-93542065D01*
X92892065Y-93196286D01*
X93079200Y-92744503D01*
X93079200Y-92255497D01*
X93120800Y-92255497D01*
X93120800Y-92744503D01*
X93307935Y-93196286D01*
X93653714Y-93542065D01*
X94105497Y-93729200D01*
X94594503Y-93729200D01*
X95046286Y-93542065D01*
X95392065Y-93196286D01*
X95441407Y-93077163D01*
X111828610Y-93077163D01*
X114000000Y-95248553D01*
X116171390Y-93077163D01*
X115851610Y-92648986D01*
X114619628Y-92157426D01*
X113293315Y-92174743D01*
X112148390Y-92648986D01*
X111828610Y-93077163D01*
X95441407Y-93077163D01*
X95579200Y-92744503D01*
X95579200Y-92255497D01*
X95392065Y-91803714D01*
X95046286Y-91457935D01*
X94594503Y-91270800D01*
X94105497Y-91270800D01*
X93653714Y-91457935D01*
X93307935Y-91803714D01*
X93120800Y-92255497D01*
X93079200Y-92255497D01*
X92892065Y-91803714D01*
X92546286Y-91457935D01*
X92094503Y-91270800D01*
X91605497Y-91270800D01*
X91153714Y-91457935D01*
X90807935Y-91803714D01*
X90620800Y-92255497D01*
X90579200Y-92255497D01*
X90392065Y-91803714D01*
X90046286Y-91457935D01*
X89594503Y-91270800D01*
X89105497Y-91270800D01*
X88653714Y-91457935D01*
X88307935Y-91803714D01*
X88302066Y-91817883D01*
X88253321Y-91700201D01*
X88006960Y-91594488D01*
X87101447Y-92500000D01*
X86598553Y-92500000D01*
X85693040Y-91594488D01*
X85446679Y-91700201D01*
X85247431Y-92298109D01*
X67972218Y-92298109D01*
X67619628Y-92157426D01*
X66293315Y-92174743D01*
X65148390Y-92648986D01*
X64828610Y-93077163D01*
X58176200Y-93077163D01*
X58176200Y-91343040D01*
X85944488Y-91343040D01*
X86850000Y-92248553D01*
X87755512Y-91343040D01*
X87649799Y-91096679D01*
X87051891Y-90897431D01*
X86423247Y-90942159D01*
X86050201Y-91096679D01*
X85944488Y-91343040D01*
X58176200Y-91343040D01*
X58176200Y-86276200D01*
X128123800Y-86276200D01*
X128123800Y-89365800D01*
M02*
