G04 #@! TF.GenerationSoftware,KiCad,Pcbnew,(5.0.0-rc2-dev-347-g62c5a706d)*
G04 #@! TF.CreationDate,2018-11-25T22:16:38+01:00*
G04 #@! TF.ProjectId,NRF24L01,4E524632344C30312E6B696361645F70,rev?*
G04 #@! TF.SameCoordinates,Original*
G04 #@! TF.FileFunction,Legend,Top*
G04 #@! TF.FilePolarity,Positive*
%FSLAX46Y46*%
G04 Gerber Fmt 4.6, Leading zero omitted, Abs format (unit mm)*
G04 Created by KiCad (PCBNEW (5.0.0-rc2-dev-347-g62c5a706d)) date 11/25/18 22:16:38*
%MOMM*%
%LPD*%
G01*
G04 APERTURE LIST*
%ADD10C,0.300000*%
%ADD11C,0.200000*%
%ADD12C,0.152400*%
%ADD13C,0.120000*%
%ADD14C,0.150000*%
%ADD15C,0.110000*%
%ADD16C,0.203200*%
%ADD17C,0.130000*%
G04 APERTURE END LIST*
D10*
X134750000Y-127799999D02*
X134678571Y-127942857D01*
X134678571Y-128157142D01*
X134750000Y-128371428D01*
X134892857Y-128514285D01*
X135035714Y-128585714D01*
X135321428Y-128657142D01*
X135535714Y-128657142D01*
X135821428Y-128585714D01*
X135964285Y-128514285D01*
X136107142Y-128371428D01*
X136178571Y-128157142D01*
X136178571Y-128014285D01*
X136107142Y-127799999D01*
X136035714Y-127728571D01*
X135535714Y-127728571D01*
X135535714Y-128014285D01*
X136178571Y-126442857D02*
X135392857Y-126442857D01*
X135250000Y-126514285D01*
X135178571Y-126657142D01*
X135178571Y-126942857D01*
X135250000Y-127085714D01*
X136107142Y-126442857D02*
X136178571Y-126585714D01*
X136178571Y-126942857D01*
X136107142Y-127085714D01*
X135964285Y-127157142D01*
X135821428Y-127157142D01*
X135678571Y-127085714D01*
X135607142Y-126942857D01*
X135607142Y-126585714D01*
X135535714Y-126442857D01*
X136178571Y-125728571D02*
X135178571Y-125728571D01*
X135464285Y-125728571D02*
X135321428Y-125657142D01*
X135250000Y-125585714D01*
X135178571Y-125442857D01*
X135178571Y-125299999D01*
X136178571Y-124157142D02*
X135392857Y-124157142D01*
X135250000Y-124228571D01*
X135178571Y-124371428D01*
X135178571Y-124657142D01*
X135250000Y-124799999D01*
X136107142Y-124157142D02*
X136178571Y-124299999D01*
X136178571Y-124657142D01*
X136107142Y-124799999D01*
X135964285Y-124871428D01*
X135821428Y-124871428D01*
X135678571Y-124799999D01*
X135607142Y-124657142D01*
X135607142Y-124299999D01*
X135535714Y-124157142D01*
X135178571Y-122799999D02*
X136392857Y-122799999D01*
X136535714Y-122871428D01*
X136607142Y-122942857D01*
X136678571Y-123085714D01*
X136678571Y-123299999D01*
X136607142Y-123442857D01*
X136107142Y-122799999D02*
X136178571Y-122942857D01*
X136178571Y-123228571D01*
X136107142Y-123371428D01*
X136035714Y-123442857D01*
X135892857Y-123514285D01*
X135464285Y-123514285D01*
X135321428Y-123442857D01*
X135250000Y-123371428D01*
X135178571Y-123228571D01*
X135178571Y-122942857D01*
X135250000Y-122799999D01*
X136107142Y-121514285D02*
X136178571Y-121657142D01*
X136178571Y-121942857D01*
X136107142Y-122085714D01*
X135964285Y-122157142D01*
X135392857Y-122157142D01*
X135250000Y-122085714D01*
X135178571Y-121942857D01*
X135178571Y-121657142D01*
X135250000Y-121514285D01*
X135392857Y-121442857D01*
X135535714Y-121442857D01*
X135678571Y-122157142D01*
X136178571Y-120157142D02*
X134678571Y-120157142D01*
X136107142Y-120157142D02*
X136178571Y-120300000D01*
X136178571Y-120585714D01*
X136107142Y-120728571D01*
X136035714Y-120799999D01*
X135892857Y-120871428D01*
X135464285Y-120871428D01*
X135321428Y-120799999D01*
X135250000Y-120728571D01*
X135178571Y-120585714D01*
X135178571Y-120300000D01*
X135250000Y-120157142D01*
X136107142Y-118871428D02*
X136178571Y-119014285D01*
X136178571Y-119300000D01*
X136107142Y-119442857D01*
X135964285Y-119514285D01*
X135392857Y-119514285D01*
X135250000Y-119442857D01*
X135178571Y-119300000D01*
X135178571Y-119014285D01*
X135250000Y-118871428D01*
X135392857Y-118800000D01*
X135535714Y-118800000D01*
X135678571Y-119514285D01*
X135178571Y-117514285D02*
X136178571Y-117514285D01*
X135178571Y-118157142D02*
X135964285Y-118157142D01*
X136107142Y-118085714D01*
X136178571Y-117942857D01*
X136178571Y-117728571D01*
X136107142Y-117585714D01*
X136035714Y-117514285D01*
X136178571Y-116800000D02*
X135178571Y-116800000D01*
X135464285Y-116800000D02*
X135321428Y-116728571D01*
X135250000Y-116657142D01*
X135178571Y-116514285D01*
X135178571Y-116371428D01*
X136178571Y-113942857D02*
X136178571Y-114800000D01*
X136178571Y-114371428D02*
X134678571Y-114371428D01*
X134892857Y-114514285D01*
X135035714Y-114657142D01*
X135107142Y-114800000D01*
X136178571Y-112514285D02*
X136178571Y-113371428D01*
X136178571Y-112942857D02*
X134678571Y-112942857D01*
X134892857Y-113085714D01*
X135035714Y-113228571D01*
X135107142Y-113371428D01*
X135607142Y-111871428D02*
X135607142Y-110728571D01*
X134821428Y-110085714D02*
X134750000Y-110014285D01*
X134678571Y-109871428D01*
X134678571Y-109514285D01*
X134750000Y-109371428D01*
X134821428Y-109300000D01*
X134964285Y-109228571D01*
X135107142Y-109228571D01*
X135321428Y-109300000D01*
X136178571Y-110157142D01*
X136178571Y-109228571D01*
X134678571Y-108300000D02*
X134678571Y-108157142D01*
X134750000Y-108014285D01*
X134821428Y-107942857D01*
X134964285Y-107871428D01*
X135250000Y-107800000D01*
X135607142Y-107800000D01*
X135892857Y-107871428D01*
X136035714Y-107942857D01*
X136107142Y-108014285D01*
X136178571Y-108157142D01*
X136178571Y-108300000D01*
X136107142Y-108442857D01*
X136035714Y-108514285D01*
X135892857Y-108585714D01*
X135607142Y-108657142D01*
X135250000Y-108657142D01*
X134964285Y-108585714D01*
X134821428Y-108514285D01*
X134750000Y-108442857D01*
X134678571Y-108300000D01*
X136178571Y-106371428D02*
X136178571Y-107228571D01*
X136178571Y-106800000D02*
X134678571Y-106800000D01*
X134892857Y-106942857D01*
X135035714Y-107085714D01*
X135107142Y-107228571D01*
X135321428Y-105514285D02*
X135250000Y-105657142D01*
X135178571Y-105728571D01*
X135035714Y-105800000D01*
X134964285Y-105800000D01*
X134821428Y-105728571D01*
X134750000Y-105657142D01*
X134678571Y-105514285D01*
X134678571Y-105228571D01*
X134750000Y-105085714D01*
X134821428Y-105014285D01*
X134964285Y-104942857D01*
X135035714Y-104942857D01*
X135178571Y-105014285D01*
X135250000Y-105085714D01*
X135321428Y-105228571D01*
X135321428Y-105514285D01*
X135392857Y-105657142D01*
X135464285Y-105728571D01*
X135607142Y-105800000D01*
X135892857Y-105800000D01*
X136035714Y-105728571D01*
X136107142Y-105657142D01*
X136178571Y-105514285D01*
X136178571Y-105228571D01*
X136107142Y-105085714D01*
X136035714Y-105014285D01*
X135892857Y-104942857D01*
X135607142Y-104942857D01*
X135464285Y-105014285D01*
X135392857Y-105085714D01*
X135321428Y-105228571D01*
X134678571Y-103371428D02*
X136178571Y-102871428D01*
X134678571Y-102371428D01*
X136178571Y-101085714D02*
X136178571Y-101942857D01*
X136178571Y-101514285D02*
X134678571Y-101514285D01*
X134892857Y-101657142D01*
X135035714Y-101800000D01*
X135107142Y-101942857D01*
X136035714Y-100442857D02*
X136107142Y-100371428D01*
X136178571Y-100442857D01*
X136107142Y-100514285D01*
X136035714Y-100442857D01*
X136178571Y-100442857D01*
X134678571Y-99442857D02*
X134678571Y-99300000D01*
X134750000Y-99157142D01*
X134821428Y-99085714D01*
X134964285Y-99014285D01*
X135250000Y-98942857D01*
X135607142Y-98942857D01*
X135892857Y-99014285D01*
X136035714Y-99085714D01*
X136107142Y-99157142D01*
X136178571Y-99300000D01*
X136178571Y-99442857D01*
X136107142Y-99585714D01*
X136035714Y-99657142D01*
X135892857Y-99728571D01*
X135607142Y-99800000D01*
X135250000Y-99800000D01*
X134964285Y-99728571D01*
X134821428Y-99657142D01*
X134750000Y-99585714D01*
X134678571Y-99442857D01*
D11*
X83743748Y-110440508D02*
G75*
G03X83743748Y-110440508I-141421J0D01*
G01*
D12*
X76981327Y-133185087D02*
X77743327Y-133185087D01*
X76981327Y-117183087D02*
X76981327Y-133185087D01*
X77743327Y-117183087D02*
X76981327Y-117183087D01*
D13*
X78845627Y-135140787D02*
X78405627Y-135140787D01*
X78845627Y-136160787D02*
X78405627Y-136160787D01*
X55500000Y-121890000D02*
X55200000Y-122490000D01*
X54900000Y-121890000D02*
X55500000Y-121890000D01*
X55200000Y-122490000D02*
X54900000Y-121890000D01*
X59010000Y-132910000D02*
X59010000Y-122690000D01*
X50290000Y-132910000D02*
X59010000Y-132910000D01*
X50290000Y-122690000D02*
X50290000Y-132910000D01*
X59010000Y-122690000D02*
X50290000Y-122690000D01*
X69800000Y-111800000D02*
X69800000Y-105200000D01*
X69800000Y-120800000D02*
X69800000Y-114200000D01*
X69800000Y-120800000D02*
X50000000Y-120800000D01*
X50000000Y-120800000D02*
X50000000Y-105200000D01*
X50000000Y-105200000D02*
X69800000Y-105200000D01*
X54250000Y-111500000D02*
X54250000Y-109000000D01*
X64850000Y-106950000D02*
X62350000Y-106950000D01*
X65750000Y-112950000D02*
X66550000Y-112950000D01*
X62350000Y-118950000D02*
X64850000Y-118950000D01*
X58950000Y-112950000D02*
X57450000Y-112950000D01*
X57450000Y-112950000D02*
X52850000Y-115450000D01*
X58950000Y-109350000D02*
X65750000Y-109350000D01*
X58950000Y-112950000D02*
X58950000Y-109350000D01*
X65750000Y-112950000D02*
X65750000Y-109350000D01*
X62350000Y-118950000D02*
X62350000Y-114750000D01*
X62350000Y-111150000D02*
X62350000Y-106950000D01*
X60350000Y-111150000D02*
X64350000Y-114750000D01*
X64350000Y-111150000D02*
X64350000Y-114750000D01*
X64350000Y-114750000D02*
X60350000Y-114750000D01*
X60350000Y-114750000D02*
X60350000Y-111150000D01*
X60350000Y-111150000D02*
X64350000Y-111150000D01*
D14*
X95600000Y-88500000D02*
X113100000Y-88500000D01*
X113100000Y-88500000D02*
X113100000Y-87000000D01*
X113100000Y-87000000D02*
X68100000Y-87000000D01*
X68100000Y-87000000D02*
X68100000Y-88500000D01*
X68100000Y-88500000D02*
X85600000Y-88500000D01*
X85600000Y-88500000D02*
X95600000Y-88500000D01*
X95600000Y-88500000D02*
X95600000Y-91350000D01*
X95600000Y-91350000D02*
X85600000Y-91350000D01*
X85600000Y-91350000D02*
X85600000Y-88500000D01*
D13*
X74953731Y-135135928D02*
X74513731Y-135135928D01*
X74953731Y-136155928D02*
X74513731Y-136155928D01*
X74929631Y-133434128D02*
X74489631Y-133434128D01*
X74929631Y-134454128D02*
X74489631Y-134454128D01*
X100230627Y-108832787D02*
X98930627Y-108832787D01*
X100230627Y-110652787D02*
X98930627Y-110652787D01*
X95450000Y-97890000D02*
X94150000Y-97890000D01*
X95450000Y-99710000D02*
X94150000Y-99710000D01*
X94547027Y-113986887D02*
X94547027Y-112686887D01*
X92727027Y-113986887D02*
X92727027Y-112686887D01*
X85955527Y-112730487D02*
X85955527Y-115000487D01*
X87475527Y-112730487D02*
X85955527Y-112730487D01*
X87475527Y-115000487D02*
X87475527Y-112730487D01*
X74661227Y-119404287D02*
X74661227Y-117134287D01*
X73141227Y-119404287D02*
X74661227Y-119404287D01*
X73141227Y-117134287D02*
X73141227Y-119404287D01*
D14*
X103375127Y-112522287D02*
X106375127Y-112522287D01*
X103375127Y-118522287D02*
X103375127Y-112522287D01*
X109375127Y-118522287D02*
X103375127Y-118522287D01*
X109375127Y-112522287D02*
X109375127Y-118522287D01*
X106375127Y-112522287D02*
X109375127Y-112522287D01*
X103375127Y-134522287D02*
X106375127Y-134522287D01*
X103375127Y-128522287D02*
X103375127Y-134522287D01*
X109375127Y-128522287D02*
X103375127Y-128522287D01*
X109375127Y-134522287D02*
X109375127Y-128522287D01*
X106375127Y-134522287D02*
X109375127Y-134522287D01*
D13*
X83105727Y-100886887D02*
X83745727Y-100886887D01*
X85905727Y-100886887D02*
X85265727Y-100886887D01*
X83745727Y-100886887D02*
X83745727Y-101516887D01*
X83155727Y-98166887D02*
X85855727Y-98166887D01*
X118100000Y-87800000D02*
X120700000Y-87800000D01*
X118100000Y-102500000D02*
X118100000Y-87800000D01*
X127300000Y-87800000D02*
X127300000Y-89700000D01*
X124600000Y-87800000D02*
X127300000Y-87800000D01*
X127300000Y-102500000D02*
X118100000Y-102500000D01*
X127300000Y-93700000D02*
X127300000Y-102500000D01*
X95598627Y-134938987D02*
X94598627Y-134938987D01*
X95598627Y-134938987D02*
X95598627Y-135938987D01*
X87598627Y-138138987D02*
X91198627Y-138138987D01*
X87598627Y-137288987D02*
X87598627Y-138138987D01*
X87398627Y-137288987D02*
X87598627Y-137288987D01*
X87398627Y-136488987D02*
X87398627Y-137288987D01*
X87598627Y-136488987D02*
X87398627Y-136488987D01*
X87598627Y-135738987D02*
X87598627Y-136488987D01*
X91198627Y-135738987D02*
X87598627Y-135738987D01*
X94798627Y-138138987D02*
X91198627Y-138138987D01*
X94798627Y-137288987D02*
X94798627Y-138138987D01*
X94998627Y-137288987D02*
X94798627Y-137288987D01*
X94998627Y-136488987D02*
X94998627Y-137288987D01*
X94798627Y-136488987D02*
X94998627Y-136488987D01*
X94798627Y-135738987D02*
X94798627Y-136488987D01*
X91198627Y-135738987D02*
X94798627Y-135738987D01*
X87088627Y-138648987D02*
X95308627Y-138648987D01*
X87088627Y-135228987D02*
X87088627Y-138648987D01*
X95308627Y-135228987D02*
X87088627Y-135228987D01*
X95308627Y-138648987D02*
X95308627Y-135228987D01*
X101259527Y-115192087D02*
X101259527Y-111772087D01*
X101259527Y-111772087D02*
X95539527Y-111772087D01*
X95539527Y-111772087D02*
X95539527Y-115192087D01*
X95539527Y-115192087D02*
X101259527Y-115192087D01*
X98399527Y-112282087D02*
X100749527Y-112282087D01*
X100749527Y-112282087D02*
X100749527Y-113032087D01*
X100749527Y-113032087D02*
X100949527Y-113032087D01*
X100949527Y-113032087D02*
X100949527Y-113832087D01*
X100949527Y-113832087D02*
X100749527Y-113832087D01*
X100749527Y-113832087D02*
X100749527Y-114682087D01*
X100749527Y-114682087D02*
X98399527Y-114682087D01*
X98399527Y-112282087D02*
X96049527Y-112282087D01*
X96049527Y-112282087D02*
X96049527Y-113032087D01*
X96049527Y-113032087D02*
X95849527Y-113032087D01*
X95849527Y-113032087D02*
X95849527Y-113832087D01*
X95849527Y-113832087D02*
X96049527Y-113832087D01*
X96049527Y-113832087D02*
X96049527Y-114682087D01*
X96049527Y-114682087D02*
X98399527Y-114682087D01*
X101549527Y-111482087D02*
X101549527Y-112482087D01*
X101549527Y-111482087D02*
X100549527Y-111482087D01*
X102097727Y-138636287D02*
X102097727Y-135216287D01*
X102097727Y-135216287D02*
X96377727Y-135216287D01*
X96377727Y-135216287D02*
X96377727Y-138636287D01*
X96377727Y-138636287D02*
X102097727Y-138636287D01*
X99237727Y-135726287D02*
X101587727Y-135726287D01*
X101587727Y-135726287D02*
X101587727Y-136476287D01*
X101587727Y-136476287D02*
X101787727Y-136476287D01*
X101787727Y-136476287D02*
X101787727Y-137276287D01*
X101787727Y-137276287D02*
X101587727Y-137276287D01*
X101587727Y-137276287D02*
X101587727Y-138126287D01*
X101587727Y-138126287D02*
X99237727Y-138126287D01*
X99237727Y-135726287D02*
X96887727Y-135726287D01*
X96887727Y-135726287D02*
X96887727Y-136476287D01*
X96887727Y-136476287D02*
X96687727Y-136476287D01*
X96687727Y-136476287D02*
X96687727Y-137276287D01*
X96687727Y-137276287D02*
X96887727Y-137276287D01*
X96887727Y-137276287D02*
X96887727Y-138126287D01*
X96887727Y-138126287D02*
X99237727Y-138126287D01*
X102387727Y-134926287D02*
X102387727Y-135926287D01*
X102387727Y-134926287D02*
X101387727Y-134926287D01*
X71368727Y-125895187D02*
X71368727Y-124435187D01*
X74528727Y-125895187D02*
X74528727Y-123735187D01*
X74528727Y-125895187D02*
X73598727Y-125895187D01*
X71368727Y-125895187D02*
X72298727Y-125895187D01*
X89444027Y-113980487D02*
X89444027Y-114420487D01*
X90464027Y-113980487D02*
X90464027Y-114420487D01*
X88851127Y-114421787D02*
X88851127Y-113981787D01*
X87831127Y-114421787D02*
X87831127Y-113981787D01*
X91069627Y-113993187D02*
X91069627Y-114433187D01*
X92089627Y-113993187D02*
X92089627Y-114433187D01*
X81504427Y-136109987D02*
X81944427Y-136109987D01*
X81504427Y-135089987D02*
X81944427Y-135089987D01*
X84615927Y-136109987D02*
X85055927Y-136109987D01*
X84615927Y-135089987D02*
X85055927Y-135089987D01*
X73391227Y-121028987D02*
X73391227Y-121468987D01*
X74411227Y-121028987D02*
X74411227Y-121468987D01*
X73480127Y-128890287D02*
X73480127Y-129330287D01*
X74500127Y-128890287D02*
X74500127Y-129330287D01*
D14*
X82452327Y-107049087D02*
X82452327Y-107824087D01*
X86752327Y-107049087D02*
X86752327Y-107824087D01*
X86752327Y-111349087D02*
X86752327Y-110574087D01*
X82452327Y-111349087D02*
X82452327Y-110574087D01*
X86752327Y-107049087D02*
X85977327Y-107049087D01*
X86752327Y-111349087D02*
X85977327Y-111349087D01*
X82452327Y-107049087D02*
X83227327Y-107049087D01*
D13*
X92762827Y-100655887D02*
X98772827Y-100655887D01*
X95012827Y-107475887D02*
X98772827Y-107475887D01*
X98772827Y-100655887D02*
X98772827Y-101915887D01*
X98772827Y-107475887D02*
X98772827Y-106215887D01*
X91652327Y-110599087D02*
X91652327Y-106599087D01*
X88352327Y-110599087D02*
X91652327Y-110599087D01*
D10*
X76876190Y-113604761D02*
X76876190Y-115223809D01*
X76971428Y-115414285D01*
X77066666Y-115509523D01*
X77257142Y-115604761D01*
X77638095Y-115604761D01*
X77828571Y-115509523D01*
X77923809Y-115414285D01*
X78019047Y-115223809D01*
X78019047Y-113604761D01*
X78876190Y-113795238D02*
X78971428Y-113700000D01*
X79161904Y-113604761D01*
X79638095Y-113604761D01*
X79828571Y-113700000D01*
X79923809Y-113795238D01*
X80019047Y-113985714D01*
X80019047Y-114176190D01*
X79923809Y-114461904D01*
X78780952Y-115604761D01*
X80019047Y-115604761D01*
D14*
X78458960Y-137753167D02*
X78125627Y-137276977D01*
X77887531Y-137753167D02*
X77887531Y-136753167D01*
X78268484Y-136753167D01*
X78363722Y-136800787D01*
X78411341Y-136848406D01*
X78458960Y-136943644D01*
X78458960Y-137086501D01*
X78411341Y-137181739D01*
X78363722Y-137229358D01*
X78268484Y-137276977D01*
X77887531Y-137276977D01*
X78792293Y-136753167D02*
X79458960Y-136753167D01*
X79030388Y-137753167D01*
X60366666Y-130752380D02*
X60366666Y-131466666D01*
X60319047Y-131609523D01*
X60223809Y-131704761D01*
X60080952Y-131752380D01*
X59985714Y-131752380D01*
X61319047Y-130752380D02*
X60842857Y-130752380D01*
X60795238Y-131228571D01*
X60842857Y-131180952D01*
X60938095Y-131133333D01*
X61176190Y-131133333D01*
X61271428Y-131180952D01*
X61319047Y-131228571D01*
X61366666Y-131323809D01*
X61366666Y-131561904D01*
X61319047Y-131657142D01*
X61271428Y-131704761D01*
X61176190Y-131752380D01*
X60938095Y-131752380D01*
X60842857Y-131704761D01*
X60795238Y-131657142D01*
D10*
X58823809Y-104704761D02*
X58823809Y-102704761D01*
X59966666Y-104704761D02*
X59109523Y-103561904D01*
X59966666Y-102704761D02*
X58823809Y-103847619D01*
X61871428Y-104704761D02*
X60728571Y-104704761D01*
X61300000Y-104704761D02*
X61300000Y-102704761D01*
X61109523Y-102990476D01*
X60919047Y-103180952D01*
X60728571Y-103276190D01*
D13*
X88483333Y-103450000D02*
X88450000Y-103483333D01*
X88350000Y-103516666D01*
X88283333Y-103516666D01*
X88183333Y-103483333D01*
X88116666Y-103416666D01*
X88083333Y-103350000D01*
X88050000Y-103216666D01*
X88050000Y-103116666D01*
X88083333Y-102983333D01*
X88116666Y-102916666D01*
X88183333Y-102850000D01*
X88283333Y-102816666D01*
X88350000Y-102816666D01*
X88450000Y-102850000D01*
X88483333Y-102883333D01*
X88716666Y-102816666D02*
X89150000Y-102816666D01*
X88916666Y-103083333D01*
X89016666Y-103083333D01*
X89083333Y-103116666D01*
X89116666Y-103150000D01*
X89150000Y-103216666D01*
X89150000Y-103383333D01*
X89116666Y-103450000D01*
X89083333Y-103483333D01*
X89016666Y-103516666D01*
X88816666Y-103516666D01*
X88750000Y-103483333D01*
X88716666Y-103450000D01*
D15*
X79983333Y-111350000D02*
X79950000Y-111383333D01*
X79850000Y-111416666D01*
X79783333Y-111416666D01*
X79683333Y-111383333D01*
X79616666Y-111316666D01*
X79583333Y-111250000D01*
X79550000Y-111116666D01*
X79550000Y-111016666D01*
X79583333Y-110883333D01*
X79616666Y-110816666D01*
X79683333Y-110750000D01*
X79783333Y-110716666D01*
X79850000Y-110716666D01*
X79950000Y-110750000D01*
X79983333Y-110783333D01*
X80216666Y-110716666D02*
X80683333Y-110716666D01*
X80383333Y-111416666D01*
D13*
X81083333Y-107750000D02*
X81050000Y-107783333D01*
X80950000Y-107816666D01*
X80883333Y-107816666D01*
X80783333Y-107783333D01*
X80716666Y-107716666D01*
X80683333Y-107650000D01*
X80650000Y-107516666D01*
X80650000Y-107416666D01*
X80683333Y-107283333D01*
X80716666Y-107216666D01*
X80783333Y-107150000D01*
X80883333Y-107116666D01*
X80950000Y-107116666D01*
X81050000Y-107150000D01*
X81083333Y-107183333D01*
X81483333Y-107416666D02*
X81416666Y-107383333D01*
X81383333Y-107350000D01*
X81350000Y-107283333D01*
X81350000Y-107250000D01*
X81383333Y-107183333D01*
X81416666Y-107150000D01*
X81483333Y-107116666D01*
X81616666Y-107116666D01*
X81683333Y-107150000D01*
X81716666Y-107183333D01*
X81750000Y-107250000D01*
X81750000Y-107283333D01*
X81716666Y-107350000D01*
X81683333Y-107383333D01*
X81616666Y-107416666D01*
X81483333Y-107416666D01*
X81416666Y-107450000D01*
X81383333Y-107483333D01*
X81350000Y-107550000D01*
X81350000Y-107683333D01*
X81383333Y-107750000D01*
X81416666Y-107783333D01*
X81483333Y-107816666D01*
X81616666Y-107816666D01*
X81683333Y-107783333D01*
X81716666Y-107750000D01*
X81750000Y-107683333D01*
X81750000Y-107550000D01*
X81716666Y-107483333D01*
X81683333Y-107450000D01*
X81616666Y-107416666D01*
X78883333Y-109150000D02*
X78850000Y-109183333D01*
X78750000Y-109216666D01*
X78683333Y-109216666D01*
X78583333Y-109183333D01*
X78516666Y-109116666D01*
X78483333Y-109050000D01*
X78450000Y-108916666D01*
X78450000Y-108816666D01*
X78483333Y-108683333D01*
X78516666Y-108616666D01*
X78583333Y-108550000D01*
X78683333Y-108516666D01*
X78750000Y-108516666D01*
X78850000Y-108550000D01*
X78883333Y-108583333D01*
X79216666Y-109216666D02*
X79350000Y-109216666D01*
X79416666Y-109183333D01*
X79450000Y-109150000D01*
X79516666Y-109050000D01*
X79550000Y-108916666D01*
X79550000Y-108650000D01*
X79516666Y-108583333D01*
X79483333Y-108550000D01*
X79416666Y-108516666D01*
X79283333Y-108516666D01*
X79216666Y-108550000D01*
X79183333Y-108583333D01*
X79150000Y-108650000D01*
X79150000Y-108816666D01*
X79183333Y-108883333D01*
X79216666Y-108916666D01*
X79283333Y-108950000D01*
X79416666Y-108950000D01*
X79483333Y-108916666D01*
X79516666Y-108883333D01*
X79550000Y-108816666D01*
D16*
X83125904Y-89543619D02*
X83125904Y-90366095D01*
X83174285Y-90462857D01*
X83222666Y-90511238D01*
X83319428Y-90559619D01*
X83512952Y-90559619D01*
X83609714Y-90511238D01*
X83658095Y-90462857D01*
X83706476Y-90366095D01*
X83706476Y-89543619D01*
X84625714Y-89882285D02*
X84625714Y-90559619D01*
X84383809Y-89495238D02*
X84141904Y-90220952D01*
X84770857Y-90220952D01*
D14*
X74090873Y-137748308D02*
X73757540Y-137272118D01*
X73519445Y-137748308D02*
X73519445Y-136748308D01*
X73900397Y-136748308D01*
X73995635Y-136795928D01*
X74043254Y-136843547D01*
X74090873Y-136938785D01*
X74090873Y-137081642D01*
X74043254Y-137176880D01*
X73995635Y-137224499D01*
X73900397Y-137272118D01*
X73519445Y-137272118D01*
X75043254Y-137748308D02*
X74471826Y-137748308D01*
X74757540Y-137748308D02*
X74757540Y-136748308D01*
X74662302Y-136891166D01*
X74567064Y-136986404D01*
X74471826Y-137034023D01*
X75995635Y-137748308D02*
X75424207Y-137748308D01*
X75709921Y-137748308D02*
X75709921Y-136748308D01*
X75614683Y-136891166D01*
X75519445Y-136986404D01*
X75424207Y-137034023D01*
X74066773Y-132952380D02*
X73733440Y-132476190D01*
X73495345Y-132952380D02*
X73495345Y-131952380D01*
X73876297Y-131952380D01*
X73971535Y-132000000D01*
X74019154Y-132047619D01*
X74066773Y-132142857D01*
X74066773Y-132285714D01*
X74019154Y-132380952D01*
X73971535Y-132428571D01*
X73876297Y-132476190D01*
X73495345Y-132476190D01*
X75019154Y-132952380D02*
X74447726Y-132952380D01*
X74733440Y-132952380D02*
X74733440Y-131952380D01*
X74638202Y-132095238D01*
X74542964Y-132190476D01*
X74447726Y-132238095D01*
X75400107Y-132047619D02*
X75447726Y-132000000D01*
X75542964Y-131952380D01*
X75781059Y-131952380D01*
X75876297Y-132000000D01*
X75923916Y-132047619D01*
X75971535Y-132142857D01*
X75971535Y-132238095D01*
X75923916Y-132380952D01*
X75352488Y-132952380D01*
X75971535Y-132952380D01*
D13*
X88783333Y-111450000D02*
X88750000Y-111483333D01*
X88650000Y-111516666D01*
X88583333Y-111516666D01*
X88483333Y-111483333D01*
X88416666Y-111416666D01*
X88383333Y-111350000D01*
X88350000Y-111216666D01*
X88350000Y-111116666D01*
X88383333Y-110983333D01*
X88416666Y-110916666D01*
X88483333Y-110850000D01*
X88583333Y-110816666D01*
X88650000Y-110816666D01*
X88750000Y-110850000D01*
X88783333Y-110883333D01*
X89450000Y-111516666D02*
X89050000Y-111516666D01*
X89250000Y-111516666D02*
X89250000Y-110816666D01*
X89183333Y-110916666D01*
X89116666Y-110983333D01*
X89050000Y-111016666D01*
X88983333Y-105150000D02*
X88950000Y-105183333D01*
X88850000Y-105216666D01*
X88783333Y-105216666D01*
X88683333Y-105183333D01*
X88616666Y-105116666D01*
X88583333Y-105050000D01*
X88550000Y-104916666D01*
X88550000Y-104816666D01*
X88583333Y-104683333D01*
X88616666Y-104616666D01*
X88683333Y-104550000D01*
X88783333Y-104516666D01*
X88850000Y-104516666D01*
X88950000Y-104550000D01*
X88983333Y-104583333D01*
X89250000Y-104583333D02*
X89283333Y-104550000D01*
X89350000Y-104516666D01*
X89516666Y-104516666D01*
X89583333Y-104550000D01*
X89616666Y-104583333D01*
X89650000Y-104650000D01*
X89650000Y-104716666D01*
X89616666Y-104816666D01*
X89216666Y-105216666D01*
X89650000Y-105216666D01*
X86083333Y-102550000D02*
X86050000Y-102583333D01*
X85950000Y-102616666D01*
X85883333Y-102616666D01*
X85783333Y-102583333D01*
X85716666Y-102516666D01*
X85683333Y-102450000D01*
X85650000Y-102316666D01*
X85650000Y-102216666D01*
X85683333Y-102083333D01*
X85716666Y-102016666D01*
X85783333Y-101950000D01*
X85883333Y-101916666D01*
X85950000Y-101916666D01*
X86050000Y-101950000D01*
X86083333Y-101983333D01*
X86683333Y-102150000D02*
X86683333Y-102616666D01*
X86516666Y-101883333D02*
X86350000Y-102383333D01*
X86783333Y-102383333D01*
X83183333Y-103850000D02*
X83150000Y-103883333D01*
X83050000Y-103916666D01*
X82983333Y-103916666D01*
X82883333Y-103883333D01*
X82816666Y-103816666D01*
X82783333Y-103750000D01*
X82750000Y-103616666D01*
X82750000Y-103516666D01*
X82783333Y-103383333D01*
X82816666Y-103316666D01*
X82883333Y-103250000D01*
X82983333Y-103216666D01*
X83050000Y-103216666D01*
X83150000Y-103250000D01*
X83183333Y-103283333D01*
X83816666Y-103216666D02*
X83483333Y-103216666D01*
X83450000Y-103550000D01*
X83483333Y-103516666D01*
X83550000Y-103483333D01*
X83716666Y-103483333D01*
X83783333Y-103516666D01*
X83816666Y-103550000D01*
X83850000Y-103616666D01*
X83850000Y-103783333D01*
X83816666Y-103850000D01*
X83783333Y-103883333D01*
X83716666Y-103916666D01*
X83550000Y-103916666D01*
X83483333Y-103883333D01*
X83450000Y-103850000D01*
X81383333Y-102950000D02*
X81350000Y-102983333D01*
X81250000Y-103016666D01*
X81183333Y-103016666D01*
X81083333Y-102983333D01*
X81016666Y-102916666D01*
X80983333Y-102850000D01*
X80950000Y-102716666D01*
X80950000Y-102616666D01*
X80983333Y-102483333D01*
X81016666Y-102416666D01*
X81083333Y-102350000D01*
X81183333Y-102316666D01*
X81250000Y-102316666D01*
X81350000Y-102350000D01*
X81383333Y-102383333D01*
X81983333Y-102316666D02*
X81850000Y-102316666D01*
X81783333Y-102350000D01*
X81750000Y-102383333D01*
X81683333Y-102483333D01*
X81650000Y-102616666D01*
X81650000Y-102883333D01*
X81683333Y-102950000D01*
X81716666Y-102983333D01*
X81783333Y-103016666D01*
X81916666Y-103016666D01*
X81983333Y-102983333D01*
X82016666Y-102950000D01*
X82050000Y-102883333D01*
X82050000Y-102716666D01*
X82016666Y-102650000D01*
X81983333Y-102616666D01*
X81916666Y-102583333D01*
X81783333Y-102583333D01*
X81716666Y-102616666D01*
X81683333Y-102650000D01*
X81650000Y-102716666D01*
D17*
X95550000Y-109850000D02*
X95516666Y-109883333D01*
X95416666Y-109916666D01*
X95350000Y-109916666D01*
X95250000Y-109883333D01*
X95183333Y-109816666D01*
X95150000Y-109750000D01*
X95116666Y-109616666D01*
X95116666Y-109516666D01*
X95150000Y-109383333D01*
X95183333Y-109316666D01*
X95250000Y-109250000D01*
X95350000Y-109216666D01*
X95416666Y-109216666D01*
X95516666Y-109250000D01*
X95550000Y-109283333D01*
X96216666Y-109916666D02*
X95816666Y-109916666D01*
X96016666Y-109916666D02*
X96016666Y-109216666D01*
X95950000Y-109316666D01*
X95883333Y-109383333D01*
X95816666Y-109416666D01*
X96650000Y-109216666D02*
X96716666Y-109216666D01*
X96783333Y-109250000D01*
X96816666Y-109283333D01*
X96850000Y-109350000D01*
X96883333Y-109483333D01*
X96883333Y-109650000D01*
X96850000Y-109783333D01*
X96816666Y-109850000D01*
X96783333Y-109883333D01*
X96716666Y-109916666D01*
X96650000Y-109916666D01*
X96583333Y-109883333D01*
X96550000Y-109850000D01*
X96516666Y-109783333D01*
X96483333Y-109650000D01*
X96483333Y-109483333D01*
X96516666Y-109350000D01*
X96550000Y-109283333D01*
X96583333Y-109250000D01*
X96650000Y-109216666D01*
X92950000Y-97250000D02*
X92916666Y-97283333D01*
X92816666Y-97316666D01*
X92750000Y-97316666D01*
X92650000Y-97283333D01*
X92583333Y-97216666D01*
X92550000Y-97150000D01*
X92516666Y-97016666D01*
X92516666Y-96916666D01*
X92550000Y-96783333D01*
X92583333Y-96716666D01*
X92650000Y-96650000D01*
X92750000Y-96616666D01*
X92816666Y-96616666D01*
X92916666Y-96650000D01*
X92950000Y-96683333D01*
X93616666Y-97316666D02*
X93216666Y-97316666D01*
X93416666Y-97316666D02*
X93416666Y-96616666D01*
X93350000Y-96716666D01*
X93283333Y-96783333D01*
X93216666Y-96816666D01*
X94283333Y-97316666D02*
X93883333Y-97316666D01*
X94083333Y-97316666D02*
X94083333Y-96616666D01*
X94016666Y-96716666D01*
X93950000Y-96783333D01*
X93883333Y-96816666D01*
X93050000Y-110750000D02*
X93016666Y-110783333D01*
X92916666Y-110816666D01*
X92850000Y-110816666D01*
X92750000Y-110783333D01*
X92683333Y-110716666D01*
X92650000Y-110650000D01*
X92616666Y-110516666D01*
X92616666Y-110416666D01*
X92650000Y-110283333D01*
X92683333Y-110216666D01*
X92750000Y-110150000D01*
X92850000Y-110116666D01*
X92916666Y-110116666D01*
X93016666Y-110150000D01*
X93050000Y-110183333D01*
X93716666Y-110816666D02*
X93316666Y-110816666D01*
X93516666Y-110816666D02*
X93516666Y-110116666D01*
X93450000Y-110216666D01*
X93383333Y-110283333D01*
X93316666Y-110316666D01*
X93983333Y-110183333D02*
X94016666Y-110150000D01*
X94083333Y-110116666D01*
X94250000Y-110116666D01*
X94316666Y-110150000D01*
X94350000Y-110183333D01*
X94383333Y-110250000D01*
X94383333Y-110316666D01*
X94350000Y-110416666D01*
X93950000Y-110816666D01*
X94383333Y-110816666D01*
X84583333Y-114516666D02*
X84583333Y-113816666D01*
X84750000Y-113816666D01*
X84850000Y-113850000D01*
X84916666Y-113916666D01*
X84950000Y-113983333D01*
X84983333Y-114116666D01*
X84983333Y-114216666D01*
X84950000Y-114350000D01*
X84916666Y-114416666D01*
X84850000Y-114483333D01*
X84750000Y-114516666D01*
X84583333Y-114516666D01*
X85650000Y-114516666D02*
X85250000Y-114516666D01*
X85450000Y-114516666D02*
X85450000Y-113816666D01*
X85383333Y-113916666D01*
X85316666Y-113983333D01*
X85250000Y-114016666D01*
D14*
X71161904Y-118352380D02*
X71161904Y-117352380D01*
X71400000Y-117352380D01*
X71542857Y-117400000D01*
X71638095Y-117495238D01*
X71685714Y-117590476D01*
X71733333Y-117780952D01*
X71733333Y-117923809D01*
X71685714Y-118114285D01*
X71638095Y-118209523D01*
X71542857Y-118304761D01*
X71400000Y-118352380D01*
X71161904Y-118352380D01*
X72114285Y-117447619D02*
X72161904Y-117400000D01*
X72257142Y-117352380D01*
X72495238Y-117352380D01*
X72590476Y-117400000D01*
X72638095Y-117447619D01*
X72685714Y-117542857D01*
X72685714Y-117638095D01*
X72638095Y-117780952D01*
X72066666Y-118352380D01*
X72685714Y-118352380D01*
D10*
X108233333Y-123357142D02*
X107566666Y-123357142D01*
X107566666Y-124404761D02*
X107566666Y-122404761D01*
X108519047Y-122404761D01*
X110328571Y-124404761D02*
X109185714Y-124404761D01*
X109757142Y-124404761D02*
X109757142Y-122404761D01*
X109566666Y-122690476D01*
X109376190Y-122880952D01*
X109185714Y-122976190D01*
D13*
X87466666Y-99216666D02*
X87466666Y-99716666D01*
X87433333Y-99816666D01*
X87366666Y-99883333D01*
X87266666Y-99916666D01*
X87200000Y-99916666D01*
X88166666Y-99916666D02*
X87766666Y-99916666D01*
X87966666Y-99916666D02*
X87966666Y-99216666D01*
X87900000Y-99316666D01*
X87833333Y-99383333D01*
X87766666Y-99416666D01*
D10*
X128733333Y-94704761D02*
X128733333Y-96133333D01*
X128638095Y-96419047D01*
X128447619Y-96609523D01*
X128161904Y-96704761D01*
X127971428Y-96704761D01*
X129590476Y-94895238D02*
X129685714Y-94800000D01*
X129876190Y-94704761D01*
X130352380Y-94704761D01*
X130542857Y-94800000D01*
X130638095Y-94895238D01*
X130733333Y-95085714D01*
X130733333Y-95276190D01*
X130638095Y-95561904D01*
X129495238Y-96704761D01*
X130733333Y-96704761D01*
D14*
X90865293Y-139191367D02*
X90865293Y-139905653D01*
X90817674Y-140048510D01*
X90722436Y-140143748D01*
X90579579Y-140191367D01*
X90484341Y-140191367D01*
X91246246Y-139191367D02*
X91865293Y-139191367D01*
X91531960Y-139572320D01*
X91674817Y-139572320D01*
X91770055Y-139619939D01*
X91817674Y-139667558D01*
X91865293Y-139762796D01*
X91865293Y-140000891D01*
X91817674Y-140096129D01*
X91770055Y-140143748D01*
X91674817Y-140191367D01*
X91389103Y-140191367D01*
X91293865Y-140143748D01*
X91246246Y-140096129D01*
X102466666Y-110952380D02*
X102466666Y-111666666D01*
X102419047Y-111809523D01*
X102323809Y-111904761D01*
X102180952Y-111952380D01*
X102085714Y-111952380D01*
X103371428Y-111285714D02*
X103371428Y-111952380D01*
X103133333Y-110904761D02*
X102895238Y-111619047D01*
X103514285Y-111619047D01*
X98904393Y-139178667D02*
X98904393Y-139892953D01*
X98856774Y-140035810D01*
X98761536Y-140131048D01*
X98618679Y-140178667D01*
X98523441Y-140178667D01*
X99809155Y-139178667D02*
X99618679Y-139178667D01*
X99523441Y-139226287D01*
X99475822Y-139273906D01*
X99380584Y-139416763D01*
X99332965Y-139607239D01*
X99332965Y-139988191D01*
X99380584Y-140083429D01*
X99428203Y-140131048D01*
X99523441Y-140178667D01*
X99713917Y-140178667D01*
X99809155Y-140131048D01*
X99856774Y-140083429D01*
X99904393Y-139988191D01*
X99904393Y-139750096D01*
X99856774Y-139654858D01*
X99809155Y-139607239D01*
X99713917Y-139559620D01*
X99523441Y-139559620D01*
X99428203Y-139607239D01*
X99380584Y-139654858D01*
X99332965Y-139750096D01*
D13*
X86283333Y-106416666D02*
X85950000Y-106416666D01*
X85950000Y-105716666D01*
X86883333Y-106416666D02*
X86483333Y-106416666D01*
X86683333Y-106416666D02*
X86683333Y-105716666D01*
X86616666Y-105816666D01*
X86550000Y-105883333D01*
X86483333Y-105916666D01*
X87283333Y-105316666D02*
X86950000Y-105316666D01*
X86950000Y-104616666D01*
X87483333Y-104683333D02*
X87516666Y-104650000D01*
X87583333Y-104616666D01*
X87750000Y-104616666D01*
X87816666Y-104650000D01*
X87850000Y-104683333D01*
X87883333Y-104750000D01*
X87883333Y-104816666D01*
X87850000Y-104916666D01*
X87450000Y-105316666D01*
X87883333Y-105316666D01*
X83183333Y-105016666D02*
X82850000Y-105016666D01*
X82850000Y-104316666D01*
X83350000Y-104316666D02*
X83783333Y-104316666D01*
X83550000Y-104583333D01*
X83650000Y-104583333D01*
X83716666Y-104616666D01*
X83750000Y-104650000D01*
X83783333Y-104716666D01*
X83783333Y-104883333D01*
X83750000Y-104950000D01*
X83716666Y-104983333D01*
X83650000Y-105016666D01*
X83450000Y-105016666D01*
X83383333Y-104983333D01*
X83350000Y-104950000D01*
D14*
X69904761Y-125947619D02*
X69809523Y-125900000D01*
X69714285Y-125804761D01*
X69571428Y-125661904D01*
X69476190Y-125614285D01*
X69380952Y-125614285D01*
X69428571Y-125852380D02*
X69333333Y-125804761D01*
X69238095Y-125709523D01*
X69190476Y-125519047D01*
X69190476Y-125185714D01*
X69238095Y-124995238D01*
X69333333Y-124900000D01*
X69428571Y-124852380D01*
X69619047Y-124852380D01*
X69714285Y-124900000D01*
X69809523Y-124995238D01*
X69857142Y-125185714D01*
X69857142Y-125519047D01*
X69809523Y-125709523D01*
X69714285Y-125804761D01*
X69619047Y-125852380D01*
X69428571Y-125852380D01*
X70809523Y-125852380D02*
X70238095Y-125852380D01*
X70523809Y-125852380D02*
X70523809Y-124852380D01*
X70428571Y-124995238D01*
X70333333Y-125090476D01*
X70238095Y-125138095D01*
D13*
X88018993Y-106915753D02*
X87685660Y-107149087D01*
X88018993Y-107315753D02*
X87318993Y-107315753D01*
X87318993Y-107049087D01*
X87352327Y-106982420D01*
X87385660Y-106949087D01*
X87452327Y-106915753D01*
X87552327Y-106915753D01*
X87618993Y-106949087D01*
X87652327Y-106982420D01*
X87685660Y-107049087D01*
X87685660Y-107315753D01*
X88018993Y-106249087D02*
X88018993Y-106649087D01*
X88018993Y-106449087D02*
X87318993Y-106449087D01*
X87418993Y-106515753D01*
X87485660Y-106582420D01*
X87518993Y-106649087D01*
X81083333Y-106516666D02*
X80850000Y-106183333D01*
X80683333Y-106516666D02*
X80683333Y-105816666D01*
X80950000Y-105816666D01*
X81016666Y-105850000D01*
X81050000Y-105883333D01*
X81083333Y-105950000D01*
X81083333Y-106050000D01*
X81050000Y-106116666D01*
X81016666Y-106150000D01*
X80950000Y-106183333D01*
X80683333Y-106183333D01*
X81350000Y-105883333D02*
X81383333Y-105850000D01*
X81450000Y-105816666D01*
X81616666Y-105816666D01*
X81683333Y-105850000D01*
X81716666Y-105883333D01*
X81750000Y-105950000D01*
X81750000Y-106016666D01*
X81716666Y-106116666D01*
X81316666Y-106516666D01*
X81750000Y-106516666D01*
D17*
X89883333Y-112516666D02*
X89650000Y-112183333D01*
X89483333Y-112516666D02*
X89483333Y-111816666D01*
X89750000Y-111816666D01*
X89816666Y-111850000D01*
X89850000Y-111883333D01*
X89883333Y-111950000D01*
X89883333Y-112050000D01*
X89850000Y-112116666D01*
X89816666Y-112150000D01*
X89750000Y-112183333D01*
X89483333Y-112183333D01*
X90116666Y-111816666D02*
X90550000Y-111816666D01*
X90316666Y-112083333D01*
X90416666Y-112083333D01*
X90483333Y-112116666D01*
X90516666Y-112150000D01*
X90550000Y-112216666D01*
X90550000Y-112383333D01*
X90516666Y-112450000D01*
X90483333Y-112483333D01*
X90416666Y-112516666D01*
X90216666Y-112516666D01*
X90150000Y-112483333D01*
X90116666Y-112450000D01*
X88183333Y-112516666D02*
X87950000Y-112183333D01*
X87783333Y-112516666D02*
X87783333Y-111816666D01*
X88050000Y-111816666D01*
X88116666Y-111850000D01*
X88150000Y-111883333D01*
X88183333Y-111950000D01*
X88183333Y-112050000D01*
X88150000Y-112116666D01*
X88116666Y-112150000D01*
X88050000Y-112183333D01*
X87783333Y-112183333D01*
X88783333Y-112050000D02*
X88783333Y-112516666D01*
X88616666Y-111783333D02*
X88450000Y-112283333D01*
X88883333Y-112283333D01*
X91383333Y-112516666D02*
X91150000Y-112183333D01*
X90983333Y-112516666D02*
X90983333Y-111816666D01*
X91250000Y-111816666D01*
X91316666Y-111850000D01*
X91350000Y-111883333D01*
X91383333Y-111950000D01*
X91383333Y-112050000D01*
X91350000Y-112116666D01*
X91316666Y-112150000D01*
X91250000Y-112183333D01*
X90983333Y-112183333D01*
X92016666Y-111816666D02*
X91683333Y-111816666D01*
X91650000Y-112150000D01*
X91683333Y-112116666D01*
X91750000Y-112083333D01*
X91916666Y-112083333D01*
X91983333Y-112116666D01*
X92016666Y-112150000D01*
X92050000Y-112216666D01*
X92050000Y-112383333D01*
X92016666Y-112450000D01*
X91983333Y-112483333D01*
X91916666Y-112516666D01*
X91750000Y-112516666D01*
X91683333Y-112483333D01*
X91650000Y-112450000D01*
D14*
X81633333Y-137752380D02*
X81300000Y-137276190D01*
X81061904Y-137752380D02*
X81061904Y-136752380D01*
X81442857Y-136752380D01*
X81538095Y-136800000D01*
X81585714Y-136847619D01*
X81633333Y-136942857D01*
X81633333Y-137085714D01*
X81585714Y-137180952D01*
X81538095Y-137228571D01*
X81442857Y-137276190D01*
X81061904Y-137276190D01*
X82490476Y-136752380D02*
X82300000Y-136752380D01*
X82204761Y-136800000D01*
X82157142Y-136847619D01*
X82061904Y-136990476D01*
X82014285Y-137180952D01*
X82014285Y-137561904D01*
X82061904Y-137657142D01*
X82109523Y-137704761D01*
X82204761Y-137752380D01*
X82395238Y-137752380D01*
X82490476Y-137704761D01*
X82538095Y-137657142D01*
X82585714Y-137561904D01*
X82585714Y-137323809D01*
X82538095Y-137228571D01*
X82490476Y-137180952D01*
X82395238Y-137133333D01*
X82204761Y-137133333D01*
X82109523Y-137180952D01*
X82061904Y-137228571D01*
X82014285Y-137323809D01*
X84533333Y-137752380D02*
X84200000Y-137276190D01*
X83961904Y-137752380D02*
X83961904Y-136752380D01*
X84342857Y-136752380D01*
X84438095Y-136800000D01*
X84485714Y-136847619D01*
X84533333Y-136942857D01*
X84533333Y-137085714D01*
X84485714Y-137180952D01*
X84438095Y-137228571D01*
X84342857Y-137276190D01*
X83961904Y-137276190D01*
X85104761Y-137180952D02*
X85009523Y-137133333D01*
X84961904Y-137085714D01*
X84914285Y-136990476D01*
X84914285Y-136942857D01*
X84961904Y-136847619D01*
X85009523Y-136800000D01*
X85104761Y-136752380D01*
X85295238Y-136752380D01*
X85390476Y-136800000D01*
X85438095Y-136847619D01*
X85485714Y-136942857D01*
X85485714Y-136990476D01*
X85438095Y-137085714D01*
X85390476Y-137133333D01*
X85295238Y-137180952D01*
X85104761Y-137180952D01*
X85009523Y-137228571D01*
X84961904Y-137276190D01*
X84914285Y-137371428D01*
X84914285Y-137561904D01*
X84961904Y-137657142D01*
X85009523Y-137704761D01*
X85104761Y-137752380D01*
X85295238Y-137752380D01*
X85390476Y-137704761D01*
X85438095Y-137657142D01*
X85485714Y-137561904D01*
X85485714Y-137371428D01*
X85438095Y-137276190D01*
X85390476Y-137228571D01*
X85295238Y-137180952D01*
X71733333Y-121752380D02*
X71400000Y-121276190D01*
X71161904Y-121752380D02*
X71161904Y-120752380D01*
X71542857Y-120752380D01*
X71638095Y-120800000D01*
X71685714Y-120847619D01*
X71733333Y-120942857D01*
X71733333Y-121085714D01*
X71685714Y-121180952D01*
X71638095Y-121228571D01*
X71542857Y-121276190D01*
X71161904Y-121276190D01*
X72209523Y-121752380D02*
X72400000Y-121752380D01*
X72495238Y-121704761D01*
X72542857Y-121657142D01*
X72638095Y-121514285D01*
X72685714Y-121323809D01*
X72685714Y-120942857D01*
X72638095Y-120847619D01*
X72590476Y-120800000D01*
X72495238Y-120752380D01*
X72304761Y-120752380D01*
X72209523Y-120800000D01*
X72161904Y-120847619D01*
X72114285Y-120942857D01*
X72114285Y-121180952D01*
X72161904Y-121276190D01*
X72209523Y-121323809D01*
X72304761Y-121371428D01*
X72495238Y-121371428D01*
X72590476Y-121323809D01*
X72638095Y-121276190D01*
X72685714Y-121180952D01*
X70857142Y-129252380D02*
X70523809Y-128776190D01*
X70285714Y-129252380D02*
X70285714Y-128252380D01*
X70666666Y-128252380D01*
X70761904Y-128300000D01*
X70809523Y-128347619D01*
X70857142Y-128442857D01*
X70857142Y-128585714D01*
X70809523Y-128680952D01*
X70761904Y-128728571D01*
X70666666Y-128776190D01*
X70285714Y-128776190D01*
X71809523Y-129252380D02*
X71238095Y-129252380D01*
X71523809Y-129252380D02*
X71523809Y-128252380D01*
X71428571Y-128395238D01*
X71333333Y-128490476D01*
X71238095Y-128538095D01*
X72428571Y-128252380D02*
X72523809Y-128252380D01*
X72619047Y-128300000D01*
X72666666Y-128347619D01*
X72714285Y-128442857D01*
X72761904Y-128633333D01*
X72761904Y-128871428D01*
X72714285Y-129061904D01*
X72666666Y-129157142D01*
X72619047Y-129204761D01*
X72523809Y-129252380D01*
X72428571Y-129252380D01*
X72333333Y-129204761D01*
X72285714Y-129157142D01*
X72238095Y-129061904D01*
X72190476Y-128871428D01*
X72190476Y-128633333D01*
X72238095Y-128442857D01*
X72285714Y-128347619D01*
X72333333Y-128300000D01*
X72428571Y-128252380D01*
D13*
X82066666Y-112016666D02*
X82066666Y-112583333D01*
X82100000Y-112650000D01*
X82133333Y-112683333D01*
X82200000Y-112716666D01*
X82333333Y-112716666D01*
X82400000Y-112683333D01*
X82433333Y-112650000D01*
X82466666Y-112583333D01*
X82466666Y-112016666D01*
X83166666Y-112716666D02*
X82766666Y-112716666D01*
X82966666Y-112716666D02*
X82966666Y-112016666D01*
X82900000Y-112116666D01*
X82833333Y-112183333D01*
X82766666Y-112216666D01*
D14*
X98338095Y-98852380D02*
X98338095Y-99661904D01*
X98385714Y-99757142D01*
X98433333Y-99804761D01*
X98528571Y-99852380D01*
X98719047Y-99852380D01*
X98814285Y-99804761D01*
X98861904Y-99757142D01*
X98909523Y-99661904D01*
X98909523Y-98852380D01*
X99290476Y-98852380D02*
X99909523Y-98852380D01*
X99576190Y-99233333D01*
X99719047Y-99233333D01*
X99814285Y-99280952D01*
X99861904Y-99328571D01*
X99909523Y-99423809D01*
X99909523Y-99661904D01*
X99861904Y-99757142D01*
X99814285Y-99804761D01*
X99719047Y-99852380D01*
X99433333Y-99852380D01*
X99338095Y-99804761D01*
X99290476Y-99757142D01*
D13*
X92266666Y-109383333D02*
X92266666Y-109716666D01*
X92033333Y-109016666D02*
X92266666Y-109383333D01*
X92500000Y-109016666D01*
X93100000Y-109716666D02*
X92700000Y-109716666D01*
X92900000Y-109716666D02*
X92900000Y-109016666D01*
X92833333Y-109116666D01*
X92766666Y-109183333D01*
X92700000Y-109216666D01*
M02*
