G04 #@! TF.GenerationSoftware,KiCad,Pcbnew,(5.0.0-rc2-dev-347-g62c5a706d)*
G04 #@! TF.CreationDate,2018-11-25T22:16:39+01:00*
G04 #@! TF.ProjectId,NRF24L01,4E524632344C30312E6B696361645F70,rev?*
G04 #@! TF.SameCoordinates,Original*
G04 #@! TF.FileFunction,Profile,NP*
%FSLAX46Y46*%
G04 Gerber Fmt 4.6, Leading zero omitted, Abs format (unit mm)*
G04 Created by KiCad (PCBNEW (5.0.0-rc2-dev-347-g62c5a706d)) date 11/25/18 22:16:39*
%MOMM*%
%LPD*%
G01*
G04 APERTURE LIST*
%ADD10C,0.100000*%
G04 APERTURE END LIST*
D10*
X46500000Y-97500000D02*
X46500000Y-96500000D01*
X139500000Y-97500000D02*
X139500000Y-96500000D01*
X127000000Y-145000000D02*
X126000000Y-145000000D01*
X127000000Y-84000000D02*
X126000000Y-84000000D01*
X46500000Y-97500000D02*
X46500000Y-132500000D01*
X126000000Y-84000000D02*
X59000000Y-84000000D01*
X139500000Y-132500000D02*
X139500000Y-97500000D01*
X59000000Y-145000000D02*
X126000000Y-145000000D01*
X136500000Y-93500000D02*
G75*
G02X139500000Y-96500000I0J-3000000D01*
G01*
X136500000Y-93500000D02*
G75*
G02X130000000Y-87000000I0J6500000D01*
G01*
X127000000Y-84000000D02*
G75*
G02X130000000Y-87000000I0J-3000000D01*
G01*
X130000000Y-142000000D02*
G75*
G02X136500000Y-135500000I6500000J0D01*
G01*
X130000000Y-142000000D02*
G75*
G02X127000000Y-145000000I-3000000J0D01*
G01*
X139500000Y-132500000D02*
G75*
G02X136500000Y-135500000I-3000000J0D01*
G01*
X56000000Y-87000000D02*
G75*
G02X59000000Y-84000000I3000000J0D01*
G01*
X46500000Y-96500000D02*
G75*
G02X49500000Y-93500000I3000000J0D01*
G01*
X56000000Y-87000000D02*
G75*
G02X49500000Y-93500000I-6500000J0D01*
G01*
X49500000Y-135500000D02*
G75*
G02X46500000Y-132500000I0J3000000D01*
G01*
X59000000Y-145000000D02*
G75*
G02X56000000Y-142000000I0J3000000D01*
G01*
X49500000Y-135500000D02*
G75*
G02X56000000Y-142000000I0J-6500000D01*
G01*
M02*
