M48
;DRILL file {KiCad (5.0.0-rc2-dev-347-g62c5a706d)} date 11/25/18 22:16:51
;FORMAT={-:-/ absolute / metric / decimal}
FMAT,2
METRIC,TZ
T1C0.300
T2C0.400
T3C0.500
T4C0.800
T5C1.000
T6C1.016
T7C3.200
%
G90
G05
M71
T1
X72.2Y-132.1
X73.9Y-115.8
X75.8Y-113.8
X76.4Y-132.1
X78.8Y-130.3
X80.4Y-103.4
X80.402Y-107.1
X80.9Y-137.
X81.402Y-111.698
X82.734Y-101.4
X83.19Y-104.9
X83.2Y-114.544
X84.Y-137.9
X84.077Y-108.2
X84.077Y-109.777
X85.5Y-102.5
X85.6Y-108.2
X86.6Y-127.6
X87.073Y-99.527
X87.2Y-105.
X88.3Y-112.528
X90.9Y-105.9
X92.213Y-101.766
X92.342Y-130.304
T2
X93.295Y-96.9
X94.6Y-109.743
T3
X97.15Y-113.032
X98.4Y-113.032
X99.65Y-113.032
X97.988Y-136.476
X99.238Y-136.476
X100.488Y-136.476
X88.699Y-136.489
X89.949Y-136.489
X91.199Y-136.489
X92.449Y-136.489
X93.699Y-136.489
T4
X55.2Y-125.3
X55.2Y-130.3
X89.35Y-92.5
X66.45Y-106.95
X66.45Y-118.95
T5
X54.25Y-106.95
X68.4Y-113.
T6
X86.85Y-92.5
X91.85Y-92.5
X94.35Y-92.5
T7
X53.Y-100.5
X67.Y-133.
X128.5Y-127.5
X114.Y-133.
X114.Y-95.5
X67.Y-95.5
T1
X106.875Y-113.022G85X105.875Y-113.022
G05
X106.875Y-118.022G85X105.875Y-118.022
G05
X106.875Y-129.022G85X105.875Y-129.022
G05
X106.875Y-134.022G85X105.875Y-134.022
G05
T5
X121.7Y-88.7G85X123.7Y-88.7
G05
X121.7Y-94.7G85X123.7Y-94.7
G05
X127.4Y-92.7G85X127.4Y-90.7
G05
T0
M30
